<?xml version="1.0" encoding="UTF-8" standalone="no"?>
<!DOCTYPE svg PUBLIC "-//W3C//DTD SVG 1.1//EN"
 "http://www.w3.org/Graphics/SVG/1.1/DTD/svg11.dtd">
<!-- Generated by graphviz version 2.43.0 (0)
 -->
<!-- Title: src/CDir.cpp Pages: 1 -->
<svg width="267pt" height="196pt"
 viewBox="0.00 0.00 267.00 196.00" xmlns="http://www.w3.org/2000/svg" xmlns:xlink="http://www.w3.org/1999/xlink">
<g id="graph0" class="graph" transform="scale(1 1) rotate(0) translate(4 192)">
<title>src/CDir.cpp</title>
<polygon fill="white" stroke="transparent" points="-4,4 -4,-192 263,-192 263,4 -4,4"/>
<!-- Node1 -->
<g id="node1" class="node">
<title>Node1</title>
<g id="a_node1"><a xlink:title=" ">
<polygon fill="#bfbfbf" stroke="black" points="81,-168.5 81,-187.5 155,-187.5 155,-168.5 81,-168.5"/>
<text text-anchor="middle" x="118" y="-175.5" font-family="Helvetica,sans-Serif" font-size="10.00">src/CDir.cpp</text>
</a>
</g>
</g>
<!-- Node2 -->
<g id="node2" class="node">
<title>Node2</title>
<g id="a_node2"><a xlink:title=" ">
<polygon fill="white" stroke="#bfbfbf" points="0,-112.5 0,-131.5 68,-131.5 68,-112.5 0,-112.5"/>
<text text-anchor="middle" x="34" y="-119.5" font-family="Helvetica,sans-Serif" font-size="10.00">filesystem</text>
</a>
</g>
</g>
<!-- Node1&#45;&gt;Node2 -->
<g id="edge1" class="edge">
<title>Node1&#45;&gt;Node2</title>
<path fill="none" stroke="midnightblue" d="M104.5,-168.32C91.4,-159.9 71.29,-146.97 55.89,-137.07"/>
<polygon fill="midnightblue" stroke="midnightblue" points="57.77,-134.12 47.46,-131.65 53.98,-140.01 57.77,-134.12"/>
</g>
<!-- Node3 -->
<g id="node3" class="node">
<title>Node3</title>
<g id="a_node3"><a xlink:title=" ">
<polygon fill="white" stroke="#bfbfbf" points="86,-112.5 86,-131.5 150,-131.5 150,-112.5 86,-112.5"/>
<text text-anchor="middle" x="118" y="-119.5" font-family="Helvetica,sans-Serif" font-size="10.00">sys/stat.h</text>
</a>
</g>
</g>
<!-- Node1&#45;&gt;Node3 -->
<g id="edge2" class="edge">
<title>Node1&#45;&gt;Node3</title>
<path fill="none" stroke="midnightblue" d="M118,-168.08C118,-161.01 118,-150.86 118,-141.99"/>
<polygon fill="midnightblue" stroke="midnightblue" points="121.5,-141.75 118,-131.75 114.5,-141.75 121.5,-141.75"/>
</g>
<!-- Node4 -->
<g id="node4" class="node">
<title>Node4</title>
<g id="a_node4"><a xlink:href="CDir_8h.html" target="_top" xlink:title=" ">
<polygon fill="white" stroke="black" points="168,-112.5 168,-131.5 214,-131.5 214,-112.5 168,-112.5"/>
<text text-anchor="middle" x="191" y="-119.5" font-family="Helvetica,sans-Serif" font-size="10.00">CDir.h</text>
</a>
</g>
</g>
<!-- Node1&#45;&gt;Node4 -->
<g id="edge3" class="edge">
<title>Node1&#45;&gt;Node4</title>
<path fill="none" stroke="midnightblue" d="M129.73,-168.32C140.84,-160.11 157.74,-147.6 170.98,-137.81"/>
<polygon fill="midnightblue" stroke="midnightblue" points="173.1,-140.59 179.06,-131.83 168.94,-134.97 173.1,-140.59"/>
</g>
<!-- Node5 -->
<g id="node5" class="node">
<title>Node5</title>
<g id="a_node5"><a xlink:title=" ">
<polygon fill="white" stroke="#bfbfbf" points="169,-0.5 169,-19.5 213,-19.5 213,-0.5 169,-0.5"/>
<text text-anchor="middle" x="191" y="-7.5" font-family="Helvetica,sans-Serif" font-size="10.00">string</text>
</a>
</g>
</g>
<!-- Node4&#45;&gt;Node5 -->
<g id="edge4" class="edge">
<title>Node4&#45;&gt;Node5</title>
<path fill="none" stroke="midnightblue" d="M187.66,-112.2C184.45,-103.24 179.82,-88.88 178,-76 175.76,-60.15 179.79,-42.34 183.94,-29.38"/>
<polygon fill="midnightblue" stroke="midnightblue" points="187.3,-30.37 187.32,-19.78 180.69,-28.05 187.3,-30.37"/>
</g>
<!-- Node6 -->
<g id="node6" class="node">
<title>Node6</title>
<g id="a_node6"><a xlink:href="CFileType_8h.html" target="_top" xlink:title=" ">
<polygon fill="white" stroke="black" points="187,-56.5 187,-75.5 259,-75.5 259,-56.5 187,-56.5"/>
<text text-anchor="middle" x="223" y="-63.5" font-family="Helvetica,sans-Serif" font-size="10.00">CFileType.h</text>
</a>
</g>
</g>
<!-- Node4&#45;&gt;Node6 -->
<g id="edge5" class="edge">
<title>Node4&#45;&gt;Node6</title>
<path fill="none" stroke="midnightblue" d="M196.28,-112.08C200.71,-104.61 207.16,-93.72 212.62,-84.52"/>
<polygon fill="midnightblue" stroke="midnightblue" points="215.73,-86.14 217.81,-75.75 209.71,-82.57 215.73,-86.14"/>
</g>
<!-- Node6&#45;&gt;Node5 -->
<g id="edge6" class="edge">
<title>Node6&#45;&gt;Node5</title>
<path fill="none" stroke="midnightblue" d="M217.72,-56.08C213.29,-48.61 206.84,-37.72 201.38,-28.52"/>
<polygon fill="midnightblue" stroke="midnightblue" points="204.29,-26.57 196.19,-19.75 198.27,-30.14 204.29,-26.57"/>
</g>
</g>
</svg>
