<?xml version="1.0" encoding="UTF-8" standalone="no"?>
<!DOCTYPE svg PUBLIC "-//W3C//DTD SVG 1.1//EN"
 "http://www.w3.org/Graphics/SVG/1.1/DTD/svg11.dtd">
<!-- Generated by graphviz version 2.43.0 (0)
 -->
<!-- Title: dirExists Pages: 1 -->
<svg width="192pt" height="66pt"
 viewBox="0.00 0.00 192.00 66.00" xmlns="http://www.w3.org/2000/svg" xmlns:xlink="http://www.w3.org/1999/xlink">
<g id="graph0" class="graph" transform="scale(1 1) rotate(0) translate(4 62)">
<title>dirExists</title>
<polygon fill="white" stroke="transparent" points="-4,4 -4,-62 188,-62 188,4 -4,4"/>
<!-- Node1 -->
<g id="node1" class="node">
<title>Node1</title>
<g id="a_node1"><a xlink:title=" ">
<polygon fill="#bfbfbf" stroke="black" points="125,-19.5 125,-38.5 184,-38.5 184,-19.5 125,-19.5"/>
<text text-anchor="middle" x="154.5" y="-26.5" font-family="Helvetica,sans-Serif" font-size="10.00">dirExists</text>
</a>
</g>
</g>
<!-- Node2 -->
<g id="node2" class="node">
<title>Node2</title>
<g id="a_node2"><a xlink:href="classCDir.html#a5d8c4555565d3c284c6a02780924a514" target="_top" xlink:title=" ">
<polygon fill="white" stroke="black" points="2.5,-38.5 2.5,-57.5 86.5,-57.5 86.5,-38.5 2.5,-38.5"/>
<text text-anchor="middle" x="44.5" y="-45.5" font-family="Helvetica,sans-Serif" font-size="10.00">CDir::copyFile</text>
</a>
</g>
</g>
<!-- Node1&#45;&gt;Node2 -->
<g id="edge1" class="edge">
<title>Node1&#45;&gt;Node2</title>
<path fill="none" stroke="midnightblue" d="M114.91,-35.79C105.83,-37.39 96.1,-39.1 86.9,-40.72"/>
<polygon fill="midnightblue" stroke="midnightblue" points="115.6,-39.22 124.84,-34.04 114.39,-32.33 115.6,-39.22"/>
</g>
<!-- Node3 -->
<g id="node3" class="node">
<title>Node3</title>
<g id="a_node3"><a xlink:href="classCDir.html#a661a80c6f2f3a919cd7f8edd6bccc5a7" target="_top" xlink:title=" ">
<polygon fill="white" stroke="black" points="0,-0.5 0,-19.5 89,-19.5 89,-0.5 0,-0.5"/>
<text text-anchor="middle" x="44.5" y="-7.5" font-family="Helvetica,sans-Serif" font-size="10.00">CDir::moveFile</text>
</a>
</g>
</g>
<!-- Node1&#45;&gt;Node3 -->
<g id="edge2" class="edge">
<title>Node1&#45;&gt;Node3</title>
<path fill="none" stroke="midnightblue" d="M114.75,-22.18C106.52,-20.73 97.77,-19.2 89.36,-17.72"/>
<polygon fill="midnightblue" stroke="midnightblue" points="114.39,-25.67 124.84,-23.96 115.6,-18.78 114.39,-25.67"/>
</g>
</g>
</svg>
