<?xml version="1.0" encoding="UTF-8" standalone="no"?>
<!DOCTYPE svg PUBLIC "-//W3C//DTD SVG 1.1//EN"
 "http://www.w3.org/Graphics/SVG/1.1/DTD/svg11.dtd">
<!-- Generated by graphviz version 2.43.0 (0)
 -->
<!-- Title: isAccessible Pages: 1 -->
<svg width="449pt" height="142pt"
 viewBox="0.00 0.00 449.00 142.00" xmlns="http://www.w3.org/2000/svg" xmlns:xlink="http://www.w3.org/1999/xlink">
<g id="graph0" class="graph" transform="scale(1 1) rotate(0) translate(4 138)">
<title>isAccessible</title>
<polygon fill="white" stroke="transparent" points="-4,4 -4,-138 445,-138 445,4 -4,4"/>
<!-- Node1 -->
<g id="node1" class="node">
<title>Node1</title>
<g id="a_node1"><a xlink:title=" ">
<polygon fill="#bfbfbf" stroke="black" points="364,-57.5 364,-76.5 441,-76.5 441,-57.5 364,-57.5"/>
<text text-anchor="middle" x="402.5" y="-64.5" font-family="Helvetica,sans-Serif" font-size="10.00">isAccessible</text>
</a>
</g>
</g>
<!-- Node2 -->
<g id="node2" class="node">
<title>Node2</title>
<g id="a_node2"><a xlink:href="classCFile.html#a1c802397d98368be12fd32b2e1309288" target="_top" xlink:title=" ">
<polygon fill="white" stroke="black" points="237,-114.5 237,-133.5 324,-133.5 324,-114.5 237,-114.5"/>
<text text-anchor="middle" x="280.5" y="-121.5" font-family="Helvetica,sans-Serif" font-size="10.00">CFile::copyFile</text>
</a>
</g>
</g>
<!-- Node1&#45;&gt;Node2 -->
<g id="edge1" class="edge">
<title>Node1&#45;&gt;Node2</title>
<path fill="none" stroke="midnightblue" d="M375.2,-81.32C361.31,-88.7 343.89,-97.66 328,-105 321.03,-108.22 313.36,-111.47 306.29,-114.35"/>
<polygon fill="midnightblue" stroke="midnightblue" points="377.03,-84.31 384.19,-76.5 373.73,-78.14 377.03,-84.31"/>
</g>
<!-- Node4 -->
<g id="node4" class="node">
<title>Node4</title>
<g id="a_node4"><a xlink:href="classCFile.html#a0fd10f65610c3917f3795eabb94624e2" target="_top" xlink:title=" ">
<polygon fill="white" stroke="black" points="233,-76.5 233,-95.5 328,-95.5 328,-76.5 233,-76.5"/>
<text text-anchor="middle" x="280.5" y="-83.5" font-family="Helvetica,sans-Serif" font-size="10.00">CFile::createFile</text>
</a>
</g>
</g>
<!-- Node1&#45;&gt;Node4 -->
<g id="edge3" class="edge">
<title>Node1&#45;&gt;Node4</title>
<path fill="none" stroke="midnightblue" d="M353.82,-74.55C345.42,-75.88 336.68,-77.26 328.3,-78.59"/>
<polygon fill="midnightblue" stroke="midnightblue" points="354.53,-77.98 363.86,-72.96 353.44,-71.07 354.53,-77.98"/>
</g>
<!-- Node7 -->
<g id="node7" class="node">
<title>Node7</title>
<g id="a_node7"><a xlink:href="classCFile.html#a6e80c646b82e3177223b5215b5a5a5c2" target="_top" xlink:title=" ">
<polygon fill="white" stroke="black" points="233,-38.5 233,-57.5 328,-57.5 328,-38.5 233,-38.5"/>
<text text-anchor="middle" x="280.5" y="-45.5" font-family="Helvetica,sans-Serif" font-size="10.00">CFile::deleteFile</text>
</a>
</g>
</g>
<!-- Node1&#45;&gt;Node7 -->
<g id="edge6" class="edge">
<title>Node1&#45;&gt;Node7</title>
<path fill="none" stroke="midnightblue" d="M353.82,-59.45C345.42,-58.12 336.68,-56.74 328.3,-55.41"/>
<polygon fill="midnightblue" stroke="midnightblue" points="353.44,-62.93 363.86,-61.04 354.53,-56.02 353.44,-62.93"/>
</g>
<!-- Node8 -->
<g id="node8" class="node">
<title>Node8</title>
<g id="a_node8"><a xlink:href="classCFile.html#a92ccfb9e9461c6cd9f7d64e0cd9eed3a" target="_top" xlink:title=" ">
<polygon fill="white" stroke="black" points="234.5,-0.5 234.5,-19.5 326.5,-19.5 326.5,-0.5 234.5,-0.5"/>
<text text-anchor="middle" x="280.5" y="-7.5" font-family="Helvetica,sans-Serif" font-size="10.00">CFile::moveFile</text>
</a>
</g>
</g>
<!-- Node1&#45;&gt;Node8 -->
<g id="edge7" class="edge">
<title>Node1&#45;&gt;Node8</title>
<path fill="none" stroke="midnightblue" d="M375.2,-52.68C361.31,-45.3 343.89,-36.34 328,-29 321.03,-25.78 313.36,-22.53 306.29,-19.65"/>
<polygon fill="midnightblue" stroke="midnightblue" points="373.73,-55.86 384.19,-57.5 377.03,-49.69 373.73,-55.86"/>
</g>
<!-- Node3 -->
<g id="node3" class="node">
<title>Node3</title>
<g id="a_node3"><a xlink:href="Main_8cpp.html#ae66f6b31b5ad750f1fe042a706a4e3d4" target="_top" xlink:title=" ">
<polygon fill="white" stroke="black" points="141,-114.5 141,-133.5 182,-133.5 182,-114.5 141,-114.5"/>
<text text-anchor="middle" x="161.5" y="-121.5" font-family="Helvetica,sans-Serif" font-size="10.00">main</text>
</a>
</g>
</g>
<!-- Node2&#45;&gt;Node3 -->
<g id="edge2" class="edge">
<title>Node2&#45;&gt;Node3</title>
<path fill="none" stroke="midnightblue" d="M226.68,-124C210.88,-124 194.53,-124 182.28,-124"/>
<polygon fill="midnightblue" stroke="midnightblue" points="226.93,-127.5 236.93,-124 226.93,-120.5 226.93,-127.5"/>
</g>
<!-- Node5 -->
<g id="node5" class="node">
<title>Node5</title>
<g id="a_node5"><a xlink:href="classCFile.html#a868af7784dfe194d94bc4de002d2d07c" target="_top" xlink:title=" ">
<polygon fill="white" stroke="black" points="126,-76.5 126,-95.5 197,-95.5 197,-76.5 126,-76.5"/>
<text text-anchor="middle" x="161.5" y="-83.5" font-family="Helvetica,sans-Serif" font-size="10.00">CFile::CFile</text>
</a>
</g>
</g>
<!-- Node4&#45;&gt;Node5 -->
<g id="edge4" class="edge">
<title>Node4&#45;&gt;Node5</title>
<path fill="none" stroke="midnightblue" d="M222.7,-86C213.92,-86 205.1,-86 197.02,-86"/>
<polygon fill="midnightblue" stroke="midnightblue" points="222.92,-89.5 232.92,-86 222.92,-82.5 222.92,-89.5"/>
</g>
<!-- Node6 -->
<g id="node6" class="node">
<title>Node6</title>
<g id="a_node6"><a xlink:href="classCFile.html#a5d2abc5f8a1ad951881b04a42cb16210" target="_top" xlink:title=" ">
<polygon fill="white" stroke="black" points="0,-76.5 0,-95.5 90,-95.5 90,-76.5 0,-76.5"/>
<text text-anchor="middle" x="45" y="-83.5" font-family="Helvetica,sans-Serif" font-size="10.00">CFile::cloneFile</text>
</a>
</g>
</g>
<!-- Node5&#45;&gt;Node6 -->
<g id="edge5" class="edge">
<title>Node5&#45;&gt;Node6</title>
<path fill="none" stroke="midnightblue" d="M115.56,-86C107.26,-86 98.59,-86 90.3,-86"/>
<polygon fill="midnightblue" stroke="midnightblue" points="115.84,-89.5 125.84,-86 115.84,-82.5 115.84,-89.5"/>
</g>
</g>
</svg>
