<?xml version="1.0" encoding="UTF-8" standalone="no"?>
<!DOCTYPE svg PUBLIC "-//W3C//DTD SVG 1.1//EN"
 "http://www.w3.org/Graphics/SVG/1.1/DTD/svg11.dtd">
<!-- Generated by graphviz version 2.43.0 (0)
 -->
<!-- Title: src/CFile.h Pages: 1 -->
<svg width="275pt" height="140pt"
 viewBox="0.00 0.00 275.00 140.00" xmlns="http://www.w3.org/2000/svg" xmlns:xlink="http://www.w3.org/1999/xlink">
<g id="graph0" class="graph" transform="scale(1 1) rotate(0) translate(4 136)">
<title>src/CFile.h</title>
<polygon fill="white" stroke="transparent" points="-4,4 -4,-136 271,-136 271,4 -4,4"/>
<!-- Node1 -->
<g id="node1" class="node">
<title>Node1</title>
<g id="a_node1"><a xlink:title=" ">
<polygon fill="#bfbfbf" stroke="black" points="114.5,-112.5 114.5,-131.5 181.5,-131.5 181.5,-112.5 114.5,-112.5"/>
<text text-anchor="middle" x="148" y="-119.5" font-family="Helvetica,sans-Serif" font-size="10.00">src/CFile.h</text>
</a>
</g>
</g>
<!-- Node2 -->
<g id="node2" class="node">
<title>Node2</title>
<g id="a_node2"><a xlink:href="CFile_8cpp.html" target="_top" xlink:title=" ">
<polygon fill="white" stroke="black" points="0,-56.5 0,-75.5 78,-75.5 78,-56.5 0,-56.5"/>
<text text-anchor="middle" x="39" y="-63.5" font-family="Helvetica,sans-Serif" font-size="10.00">src/CFile.cpp</text>
</a>
</g>
</g>
<!-- Node1&#45;&gt;Node2 -->
<g id="edge1" class="edge">
<title>Node1&#45;&gt;Node2</title>
<path fill="none" stroke="midnightblue" d="M121.48,-107.86C101.27,-97.85 74.01,-84.35 56.47,-75.65"/>
<polygon fill="midnightblue" stroke="midnightblue" points="119.97,-111.02 130.49,-112.32 123.08,-104.75 119.97,-111.02"/>
</g>
<!-- Node3 -->
<g id="node3" class="node">
<title>Node3</title>
<g id="a_node3"><a xlink:href="CFileSystem_8h.html" target="_top" xlink:title=" ">
<polygon fill="white" stroke="black" points="96,-56.5 96,-75.5 200,-75.5 200,-56.5 96,-56.5"/>
<text text-anchor="middle" x="148" y="-63.5" font-family="Helvetica,sans-Serif" font-size="10.00">src/CFileSystem.h</text>
</a>
</g>
</g>
<!-- Node1&#45;&gt;Node3 -->
<g id="edge2" class="edge">
<title>Node1&#45;&gt;Node3</title>
<path fill="none" stroke="midnightblue" d="M148,-101.8C148,-92.91 148,-82.78 148,-75.75"/>
<polygon fill="midnightblue" stroke="midnightblue" points="144.5,-102.08 148,-112.08 151.5,-102.08 144.5,-102.08"/>
</g>
<!-- Node5 -->
<g id="node5" class="node">
<title>Node5</title>
<g id="a_node5"><a xlink:href="Main_8cpp.html" target="_top" xlink:title=" ">
<polygon fill="white" stroke="black" points="189,-0.5 189,-19.5 267,-19.5 267,-0.5 189,-0.5"/>
<text text-anchor="middle" x="228" y="-7.5" font-family="Helvetica,sans-Serif" font-size="10.00">src/Main.cpp</text>
</a>
</g>
</g>
<!-- Node1&#45;&gt;Node5 -->
<g id="edge5" class="edge">
<title>Node1&#45;&gt;Node5</title>
<path fill="none" stroke="midnightblue" d="M174.09,-107.11C186.28,-99.42 200.05,-88.81 209,-76 221.25,-58.46 225.69,-33.01 227.23,-19.76"/>
<polygon fill="midnightblue" stroke="midnightblue" points="171.98,-104.29 165.18,-112.41 175.56,-110.31 171.98,-104.29"/>
</g>
<!-- Node4 -->
<g id="node4" class="node">
<title>Node4</title>
<g id="a_node4"><a xlink:href="CFileSystem_8cpp.html" target="_top" xlink:title=" ">
<polygon fill="white" stroke="black" points="55.5,-0.5 55.5,-19.5 170.5,-19.5 170.5,-0.5 55.5,-0.5"/>
<text text-anchor="middle" x="113" y="-7.5" font-family="Helvetica,sans-Serif" font-size="10.00">src/CFileSystem.cpp</text>
</a>
</g>
</g>
<!-- Node3&#45;&gt;Node4 -->
<g id="edge3" class="edge">
<title>Node3&#45;&gt;Node4</title>
<path fill="none" stroke="midnightblue" d="M136.7,-47.57C130.68,-38.27 123.53,-27.25 118.67,-19.75"/>
<polygon fill="midnightblue" stroke="midnightblue" points="133.84,-49.6 142.22,-56.08 139.72,-45.79 133.84,-49.6"/>
</g>
<!-- Node3&#45;&gt;Node5 -->
<g id="edge4" class="edge">
<title>Node3&#45;&gt;Node5</title>
<path fill="none" stroke="midnightblue" d="M169.3,-50.62C183.92,-40.76 202.83,-27.99 215.18,-19.65"/>
<polygon fill="midnightblue" stroke="midnightblue" points="167.18,-47.83 160.85,-56.32 171.1,-53.63 167.18,-47.83"/>
</g>
</g>
</svg>
