<?xml version="1.0" encoding="UTF-8" standalone="no"?>
<!DOCTYPE svg PUBLIC "-//W3C//DTD SVG 1.1//EN"
 "http://www.w3.org/Graphics/SVG/1.1/DTD/svg11.dtd">
<!-- Generated by graphviz version 2.43.0 (0)
 -->
<!-- Title: src/CFileType.h Pages: 1 -->
<svg width="543pt" height="196pt"
 viewBox="0.00 0.00 543.00 196.00" xmlns="http://www.w3.org/2000/svg" xmlns:xlink="http://www.w3.org/1999/xlink">
<g id="graph0" class="graph" transform="scale(1 1) rotate(0) translate(4 192)">
<title>src/CFileType.h</title>
<polygon fill="white" stroke="transparent" points="-4,4 -4,-192 539,-192 539,4 -4,4"/>
<!-- Node1 -->
<g id="node1" class="node">
<title>Node1</title>
<g id="a_node1"><a xlink:title=" ">
<polygon fill="#bfbfbf" stroke="black" points="296,-168.5 296,-187.5 385,-187.5 385,-168.5 296,-168.5"/>
<text text-anchor="middle" x="340.5" y="-175.5" font-family="Helvetica,sans-Serif" font-size="10.00">src/CFileType.h</text>
</a>
</g>
</g>
<!-- Node2 -->
<g id="node2" class="node">
<title>Node2</title>
<g id="a_node2"><a xlink:href="CDir_8h.html" target="_top" xlink:title=" ">
<polygon fill="white" stroke="black" points="259,-112.5 259,-131.5 322,-131.5 322,-112.5 259,-112.5"/>
<text text-anchor="middle" x="290.5" y="-119.5" font-family="Helvetica,sans-Serif" font-size="10.00">src/CDir.h</text>
</a>
</g>
</g>
<!-- Node1&#45;&gt;Node2 -->
<g id="edge1" class="edge">
<title>Node1&#45;&gt;Node2</title>
<path fill="none" stroke="midnightblue" d="M325.42,-160.72C316.61,-151.2 305.83,-139.56 298.6,-131.75"/>
<polygon fill="midnightblue" stroke="midnightblue" points="322.88,-163.12 332.24,-168.08 328.02,-158.37 322.88,-163.12"/>
</g>
<!-- Node5 -->
<g id="node5" class="node">
<title>Node5</title>
<g id="a_node5"><a xlink:href="CFile_8h.html" target="_top" xlink:title=" ">
<polygon fill="white" stroke="black" points="166,-112.5 166,-131.5 233,-131.5 233,-112.5 166,-112.5"/>
<text text-anchor="middle" x="199.5" y="-119.5" font-family="Helvetica,sans-Serif" font-size="10.00">src/CFile.h</text>
</a>
</g>
</g>
<!-- Node1&#45;&gt;Node5 -->
<g id="edge4" class="edge">
<title>Node1&#45;&gt;Node5</title>
<path fill="none" stroke="midnightblue" d="M308.57,-164.77C282.09,-154.63 245.11,-140.47 221.74,-131.52"/>
<polygon fill="midnightblue" stroke="midnightblue" points="307.57,-168.14 318.16,-168.44 310.07,-161.6 307.57,-168.14"/>
</g>
<!-- Node9 -->
<g id="node9" class="node">
<title>Node9</title>
<g id="a_node9"><a xlink:href="CFileType_8cpp.html" target="_top" xlink:title=" ">
<polygon fill="white" stroke="black" points="340,-112.5 340,-131.5 441,-131.5 441,-112.5 340,-112.5"/>
<text text-anchor="middle" x="390.5" y="-119.5" font-family="Helvetica,sans-Serif" font-size="10.00">src/CFileType.cpp</text>
</a>
</g>
</g>
<!-- Node1&#45;&gt;Node9 -->
<g id="edge10" class="edge">
<title>Node1&#45;&gt;Node9</title>
<path fill="none" stroke="midnightblue" d="M355.58,-160.72C364.39,-151.2 375.17,-139.56 382.4,-131.75"/>
<polygon fill="midnightblue" stroke="midnightblue" points="352.98,-158.37 348.76,-168.08 358.12,-163.12 352.98,-158.37"/>
</g>
<!-- Node10 -->
<g id="node10" class="node">
<title>Node10</title>
<g id="a_node10"><a xlink:href="CLink_8h.html" target="_top" xlink:title=" ">
<polygon fill="white" stroke="black" points="459.5,-112.5 459.5,-131.5 529.5,-131.5 529.5,-112.5 459.5,-112.5"/>
<text text-anchor="middle" x="494.5" y="-119.5" font-family="Helvetica,sans-Serif" font-size="10.00">src/CLink.h</text>
</a>
</g>
</g>
<!-- Node1&#45;&gt;Node10 -->
<g id="edge11" class="edge">
<title>Node1&#45;&gt;Node10</title>
<path fill="none" stroke="midnightblue" d="M374.61,-165.04C403.59,-154.88 444.46,-140.55 470.21,-131.52"/>
<polygon fill="midnightblue" stroke="midnightblue" points="373.18,-161.83 364.9,-168.44 375.5,-168.44 373.18,-161.83"/>
</g>
<!-- Node3 -->
<g id="node3" class="node">
<title>Node3</title>
<g id="a_node3"><a xlink:href="CDir_8cpp.html" target="_top" xlink:title=" ">
<polygon fill="white" stroke="black" points="261.5,-56.5 261.5,-75.5 335.5,-75.5 335.5,-56.5 261.5,-56.5"/>
<text text-anchor="middle" x="298.5" y="-63.5" font-family="Helvetica,sans-Serif" font-size="10.00">src/CDir.cpp</text>
</a>
</g>
</g>
<!-- Node2&#45;&gt;Node3 -->
<g id="edge2" class="edge">
<title>Node2&#45;&gt;Node3</title>
<path fill="none" stroke="midnightblue" d="M293.3,-102.1C294.63,-93.14 296.15,-82.86 297.2,-75.75"/>
<polygon fill="midnightblue" stroke="midnightblue" points="289.82,-101.68 291.82,-112.08 296.75,-102.7 289.82,-101.68"/>
</g>
<!-- Node4 -->
<g id="node4" class="node">
<title>Node4</title>
<g id="a_node4"><a xlink:href="Main_8cpp.html" target="_top" xlink:title=" ">
<polygon fill="white" stroke="black" points="259.5,-0.5 259.5,-19.5 337.5,-19.5 337.5,-0.5 259.5,-0.5"/>
<text text-anchor="middle" x="298.5" y="-7.5" font-family="Helvetica,sans-Serif" font-size="10.00">src/Main.cpp</text>
</a>
</g>
</g>
<!-- Node2&#45;&gt;Node4 -->
<g id="edge3" class="edge">
<title>Node2&#45;&gt;Node4</title>
<path fill="none" stroke="midnightblue" d="M315.68,-107C326.69,-99.4 338.46,-88.91 344.5,-76 354.82,-53.97 329.21,-31.51 312.19,-19.62"/>
<polygon fill="midnightblue" stroke="midnightblue" points="313.67,-104.13 307.13,-112.46 317.44,-110.03 313.67,-104.13"/>
</g>
<!-- Node5&#45;&gt;Node4 -->
<g id="edge9" class="edge">
<title>Node5&#45;&gt;Node4</title>
<path fill="none" stroke="midnightblue" d="M212.45,-104.07C222.89,-90.69 238.14,-71.72 252.5,-56 264.56,-42.8 279.51,-28.52 289.03,-19.67"/>
<polygon fill="midnightblue" stroke="midnightblue" points="209.41,-102.28 206.07,-112.33 214.95,-106.56 209.41,-102.28"/>
</g>
<!-- Node6 -->
<g id="node6" class="node">
<title>Node6</title>
<g id="a_node6"><a xlink:href="CFile_8cpp.html" target="_top" xlink:title=" ">
<polygon fill="white" stroke="black" points="127.5,-56.5 127.5,-75.5 205.5,-75.5 205.5,-56.5 127.5,-56.5"/>
<text text-anchor="middle" x="166.5" y="-63.5" font-family="Helvetica,sans-Serif" font-size="10.00">src/CFile.cpp</text>
</a>
</g>
</g>
<!-- Node5&#45;&gt;Node6 -->
<g id="edge5" class="edge">
<title>Node5&#45;&gt;Node6</title>
<path fill="none" stroke="midnightblue" d="M188.67,-103.27C183.03,-94.05 176.38,-83.17 171.85,-75.75"/>
<polygon fill="midnightblue" stroke="midnightblue" points="185.85,-105.38 194.05,-112.08 191.82,-101.73 185.85,-105.38"/>
</g>
<!-- Node7 -->
<g id="node7" class="node">
<title>Node7</title>
<g id="a_node7"><a xlink:href="CFileSystem_8h.html" target="_top" xlink:title=" ">
<polygon fill="white" stroke="black" points="5.5,-56.5 5.5,-75.5 109.5,-75.5 109.5,-56.5 5.5,-56.5"/>
<text text-anchor="middle" x="57.5" y="-63.5" font-family="Helvetica,sans-Serif" font-size="10.00">src/CFileSystem.h</text>
</a>
</g>
</g>
<!-- Node5&#45;&gt;Node7 -->
<g id="edge6" class="edge">
<title>Node5&#45;&gt;Node7</title>
<path fill="none" stroke="midnightblue" d="M167.34,-108.77C140.67,-98.63 103.43,-84.47 79.9,-75.52"/>
<polygon fill="midnightblue" stroke="midnightblue" points="166.41,-112.16 177,-112.44 168.9,-105.62 166.41,-112.16"/>
</g>
<!-- Node7&#45;&gt;Node4 -->
<g id="edge8" class="edge">
<title>Node7&#45;&gt;Node4</title>
<path fill="none" stroke="midnightblue" d="M105.62,-54.22C151.16,-44.01 218.61,-28.9 260.49,-19.52"/>
<polygon fill="midnightblue" stroke="midnightblue" points="104.68,-50.84 95.69,-56.44 106.21,-57.67 104.68,-50.84"/>
</g>
<!-- Node8 -->
<g id="node8" class="node">
<title>Node8</title>
<g id="a_node8"><a xlink:href="CFileSystem_8cpp.html" target="_top" xlink:title=" ">
<polygon fill="white" stroke="black" points="0,-0.5 0,-19.5 115,-19.5 115,-0.5 0,-0.5"/>
<text text-anchor="middle" x="57.5" y="-7.5" font-family="Helvetica,sans-Serif" font-size="10.00">src/CFileSystem.cpp</text>
</a>
</g>
</g>
<!-- Node7&#45;&gt;Node8 -->
<g id="edge7" class="edge">
<title>Node7&#45;&gt;Node8</title>
<path fill="none" stroke="midnightblue" d="M57.5,-45.8C57.5,-36.91 57.5,-26.78 57.5,-19.75"/>
<polygon fill="midnightblue" stroke="midnightblue" points="54,-46.08 57.5,-56.08 61,-46.08 54,-46.08"/>
</g>
<!-- Node10&#45;&gt;Node4 -->
<g id="edge13" class="edge">
<title>Node10&#45;&gt;Node4</title>
<path fill="none" stroke="midnightblue" d="M470.35,-107.45C429.46,-84.5 347.73,-38.63 313.81,-19.59"/>
<polygon fill="midnightblue" stroke="midnightblue" points="468.69,-110.53 479.12,-112.37 472.11,-104.42 468.69,-110.53"/>
</g>
<!-- Node11 -->
<g id="node11" class="node">
<title>Node11</title>
<g id="a_node11"><a xlink:href="CLink_8cpp.html" target="_top" xlink:title=" ">
<polygon fill="white" stroke="black" points="454,-56.5 454,-75.5 535,-75.5 535,-56.5 454,-56.5"/>
<text text-anchor="middle" x="494.5" y="-63.5" font-family="Helvetica,sans-Serif" font-size="10.00">src/CLink.cpp</text>
</a>
</g>
</g>
<!-- Node10&#45;&gt;Node11 -->
<g id="edge12" class="edge">
<title>Node10&#45;&gt;Node11</title>
<path fill="none" stroke="midnightblue" d="M494.5,-101.8C494.5,-92.91 494.5,-82.78 494.5,-75.75"/>
<polygon fill="midnightblue" stroke="midnightblue" points="491,-102.08 494.5,-112.08 498,-102.08 491,-102.08"/>
</g>
</g>
</svg>
