<?xml version="1.0" encoding="UTF-8" standalone="no"?>
<!DOCTYPE svg PUBLIC "-//W3C//DTD SVG 1.1//EN"
 "http://www.w3.org/Graphics/SVG/1.1/DTD/svg11.dtd">
<!-- Generated by graphviz version 2.43.0 (0)
 -->
<!-- Title: src/CFile.h Pages: 1 -->
<svg width="110pt" height="140pt"
 viewBox="0.00 0.00 109.50 140.00" xmlns="http://www.w3.org/2000/svg" xmlns:xlink="http://www.w3.org/1999/xlink">
<g id="graph0" class="graph" transform="scale(1 1) rotate(0) translate(4 136)">
<title>src/CFile.h</title>
<polygon fill="white" stroke="transparent" points="-4,4 -4,-136 105.5,-136 105.5,4 -4,4"/>
<!-- Node1 -->
<g id="node1" class="node">
<title>Node1</title>
<g id="a_node1"><a xlink:title=" ">
<polygon fill="#bfbfbf" stroke="black" points="0,-112.5 0,-131.5 67,-131.5 67,-112.5 0,-112.5"/>
<text text-anchor="middle" x="33.5" y="-119.5" font-family="Helvetica,sans-Serif" font-size="10.00">src/CFile.h</text>
</a>
</g>
</g>
<!-- Node2 -->
<g id="node2" class="node">
<title>Node2</title>
<g id="a_node2"><a xlink:title=" ">
<polygon fill="white" stroke="#bfbfbf" points="11.5,-0.5 11.5,-19.5 55.5,-19.5 55.5,-0.5 11.5,-0.5"/>
<text text-anchor="middle" x="33.5" y="-7.5" font-family="Helvetica,sans-Serif" font-size="10.00">string</text>
</a>
</g>
</g>
<!-- Node1&#45;&gt;Node2 -->
<g id="edge1" class="edge">
<title>Node1&#45;&gt;Node2</title>
<path fill="none" stroke="midnightblue" d="M30.16,-112.2C26.95,-103.24 22.32,-88.88 20.5,-76 18.26,-60.15 22.29,-42.34 26.44,-29.38"/>
<polygon fill="midnightblue" stroke="midnightblue" points="29.8,-30.37 29.82,-19.78 23.19,-28.05 29.8,-30.37"/>
</g>
<!-- Node3 -->
<g id="node3" class="node">
<title>Node3</title>
<g id="a_node3"><a xlink:href="CFileType_8h.html" target="_top" xlink:title=" ">
<polygon fill="white" stroke="black" points="29.5,-56.5 29.5,-75.5 101.5,-75.5 101.5,-56.5 29.5,-56.5"/>
<text text-anchor="middle" x="65.5" y="-63.5" font-family="Helvetica,sans-Serif" font-size="10.00">CFileType.h</text>
</a>
</g>
</g>
<!-- Node1&#45;&gt;Node3 -->
<g id="edge2" class="edge">
<title>Node1&#45;&gt;Node3</title>
<path fill="none" stroke="midnightblue" d="M38.78,-112.08C43.21,-104.61 49.66,-93.72 55.12,-84.52"/>
<polygon fill="midnightblue" stroke="midnightblue" points="58.23,-86.14 60.31,-75.75 52.21,-82.57 58.23,-86.14"/>
</g>
<!-- Node3&#45;&gt;Node2 -->
<g id="edge3" class="edge">
<title>Node3&#45;&gt;Node2</title>
<path fill="none" stroke="midnightblue" d="M60.22,-56.08C55.79,-48.61 49.34,-37.72 43.88,-28.52"/>
<polygon fill="midnightblue" stroke="midnightblue" points="46.79,-26.57 38.69,-19.75 40.77,-30.14 46.79,-26.57"/>
</g>
</g>
</svg>
