<?xml version="1.0" encoding="UTF-8" standalone="no"?>
<!DOCTYPE svg PUBLIC "-//W3C//DTD SVG 1.1//EN"
 "http://www.w3.org/Graphics/SVG/1.1/DTD/svg11.dtd">
<!-- Generated by graphviz version 2.43.0 (0)
 -->
<!-- Title: src/CFileSystem.h Pages: 1 -->
<svg width="222pt" height="196pt"
 viewBox="0.00 0.00 222.35 196.00" xmlns="http://www.w3.org/2000/svg" xmlns:xlink="http://www.w3.org/1999/xlink">
<g id="graph0" class="graph" transform="scale(1 1) rotate(0) translate(4 192)">
<title>src/CFileSystem.h</title>
<polygon fill="white" stroke="transparent" points="-4,4 -4,-192 218.35,-192 218.35,4 -4,4"/>
<!-- Node1 -->
<g id="node1" class="node">
<title>Node1</title>
<g id="a_node1"><a xlink:title=" ">
<polygon fill="#bfbfbf" stroke="black" points="18.35,-168.5 18.35,-187.5 122.35,-187.5 122.35,-168.5 18.35,-168.5"/>
<text text-anchor="middle" x="70.35" y="-175.5" font-family="Helvetica,sans-Serif" font-size="10.00">src/CFileSystem.h</text>
</a>
</g>
</g>
<!-- Node2 -->
<g id="node2" class="node">
<title>Node2</title>
<g id="a_node2"><a xlink:title=" ">
<polygon fill="white" stroke="#bfbfbf" points="92.35,-0.5 92.35,-19.5 136.35,-19.5 136.35,-0.5 92.35,-0.5"/>
<text text-anchor="middle" x="114.35" y="-7.5" font-family="Helvetica,sans-Serif" font-size="10.00">string</text>
</a>
</g>
</g>
<!-- Node1&#45;&gt;Node2 -->
<g id="edge1" class="edge">
<title>Node1&#45;&gt;Node2</title>
<path fill="none" stroke="midnightblue" d="M48.24,-168.32C24.36,-157.47 -8.87,-137.22 2.35,-112 20.05,-72.2 62.05,-41.47 89.29,-24.83"/>
<polygon fill="midnightblue" stroke="midnightblue" points="91.41,-27.64 98.24,-19.54 87.85,-21.62 91.41,-27.64"/>
</g>
<!-- Node3 -->
<g id="node3" class="node">
<title>Node3</title>
<g id="a_node3"><a xlink:title=" ">
<polygon fill="white" stroke="#bfbfbf" points="11.85,-112.5 11.85,-131.5 58.85,-131.5 58.85,-112.5 11.85,-112.5"/>
<text text-anchor="middle" x="35.35" y="-119.5" font-family="Helvetica,sans-Serif" font-size="10.00">vector</text>
</a>
</g>
</g>
<!-- Node1&#45;&gt;Node3 -->
<g id="edge2" class="edge">
<title>Node1&#45;&gt;Node3</title>
<path fill="none" stroke="midnightblue" d="M64.57,-168.08C59.67,-160.53 52.52,-149.49 46.51,-140.23"/>
<polygon fill="midnightblue" stroke="midnightblue" points="49.39,-138.24 41.02,-131.75 43.52,-142.05 49.39,-138.24"/>
</g>
<!-- Node4 -->
<g id="node4" class="node">
<title>Node4</title>
<g id="a_node4"><a xlink:title=" ">
<polygon fill="white" stroke="#bfbfbf" points="77.35,-112.5 77.35,-131.5 135.35,-131.5 135.35,-112.5 77.35,-112.5"/>
<text text-anchor="middle" x="106.35" y="-119.5" font-family="Helvetica,sans-Serif" font-size="10.00">memory</text>
</a>
</g>
</g>
<!-- Node1&#45;&gt;Node4 -->
<g id="edge3" class="edge">
<title>Node1&#45;&gt;Node4</title>
<path fill="none" stroke="midnightblue" d="M76.29,-168.08C81.32,-160.53 88.68,-149.49 94.86,-140.23"/>
<polygon fill="midnightblue" stroke="midnightblue" points="97.88,-142.01 100.51,-131.75 92.05,-138.13 97.88,-142.01"/>
</g>
<!-- Node5 -->
<g id="node5" class="node">
<title>Node5</title>
<g id="a_node5"><a xlink:href="CFile_8h.html" target="_top" xlink:title=" ">
<polygon fill="white" stroke="black" points="153.35,-112.5 153.35,-131.5 203.35,-131.5 203.35,-112.5 153.35,-112.5"/>
<text text-anchor="middle" x="178.35" y="-119.5" font-family="Helvetica,sans-Serif" font-size="10.00">CFile.h</text>
</a>
</g>
</g>
<!-- Node1&#45;&gt;Node5 -->
<g id="edge4" class="edge">
<title>Node1&#45;&gt;Node5</title>
<path fill="none" stroke="midnightblue" d="M87.7,-168.32C105.02,-159.66 131.86,-146.24 151.85,-136.25"/>
<polygon fill="midnightblue" stroke="midnightblue" points="153.66,-139.26 161.04,-131.65 150.53,-133 153.66,-139.26"/>
</g>
<!-- Node5&#45;&gt;Node2 -->
<g id="edge5" class="edge">
<title>Node5&#45;&gt;Node2</title>
<path fill="none" stroke="midnightblue" d="M166.74,-112.23C156.54,-103.95 142.02,-90.64 133.35,-76 124.82,-61.62 119.91,-43.16 117.22,-29.59"/>
<polygon fill="midnightblue" stroke="midnightblue" points="120.63,-28.78 115.46,-19.54 113.74,-29.99 120.63,-28.78"/>
</g>
<!-- Node6 -->
<g id="node6" class="node">
<title>Node6</title>
<g id="a_node6"><a xlink:href="CFileType_8h.html" target="_top" xlink:title=" ">
<polygon fill="white" stroke="black" points="142.35,-56.5 142.35,-75.5 214.35,-75.5 214.35,-56.5 142.35,-56.5"/>
<text text-anchor="middle" x="178.35" y="-63.5" font-family="Helvetica,sans-Serif" font-size="10.00">CFileType.h</text>
</a>
</g>
</g>
<!-- Node5&#45;&gt;Node6 -->
<g id="edge6" class="edge">
<title>Node5&#45;&gt;Node6</title>
<path fill="none" stroke="midnightblue" d="M178.35,-112.08C178.35,-105.01 178.35,-94.86 178.35,-85.99"/>
<polygon fill="midnightblue" stroke="midnightblue" points="181.85,-85.75 178.35,-75.75 174.85,-85.75 181.85,-85.75"/>
</g>
<!-- Node6&#45;&gt;Node2 -->
<g id="edge7" class="edge">
<title>Node6&#45;&gt;Node2</title>
<path fill="none" stroke="midnightblue" d="M168.06,-56.32C158.51,-48.26 144.07,-36.08 132.56,-26.37"/>
<polygon fill="midnightblue" stroke="midnightblue" points="134.72,-23.61 124.82,-19.83 130.2,-28.96 134.72,-23.61"/>
</g>
</g>
</svg>
