<?xml version="1.0" encoding="UTF-8" standalone="no"?>
<!DOCTYPE svg PUBLIC "-//W3C//DTD SVG 1.1//EN"
 "http://www.w3.org/Graphics/SVG/1.1/DTD/svg11.dtd">
<!-- Generated by graphviz version 2.43.0 (0)
 -->
<!-- Title: CDir::CDir Pages: 1 -->
<svg width="342pt" height="28pt"
 viewBox="0.00 0.00 342.00 28.00" xmlns="http://www.w3.org/2000/svg" xmlns:xlink="http://www.w3.org/1999/xlink">
<g id="graph0" class="graph" transform="scale(1 1) rotate(0) translate(4 24)">
<title>CDir::CDir</title>
<polygon fill="white" stroke="transparent" points="-4,4 -4,-24 338,-24 338,4 -4,4"/>
<!-- Node1 -->
<g id="node1" class="node">
<title>Node1</title>
<g id="a_node1"><a xlink:title=" ">
<polygon fill="#bfbfbf" stroke="black" points="0,-0.5 0,-19.5 65,-19.5 65,-0.5 0,-0.5"/>
<text text-anchor="middle" x="32.5" y="-7.5" font-family="Helvetica,sans-Serif" font-size="10.00">CDir::CDir</text>
</a>
</g>
</g>
<!-- Node2 -->
<g id="node2" class="node">
<title>Node2</title>
<g id="a_node2"><a xlink:href="classCDir.html#a7330c962cb1e9b83c49249504a6f8c13" target="_top" xlink:title=" ">
<polygon fill="white" stroke="black" points="101,-0.5 101,-19.5 193,-19.5 193,-0.5 101,-0.5"/>
<text text-anchor="middle" x="147" y="-7.5" font-family="Helvetica,sans-Serif" font-size="10.00">CDir::createFile</text>
</a>
</g>
</g>
<!-- Node1&#45;&gt;Node2 -->
<g id="edge1" class="edge">
<title>Node1&#45;&gt;Node2</title>
<path fill="none" stroke="midnightblue" d="M65.14,-10C73.08,-10 81.83,-10 90.56,-10"/>
<polygon fill="midnightblue" stroke="midnightblue" points="90.75,-13.5 100.75,-10 90.75,-6.5 90.75,-13.5"/>
</g>
<!-- Node3 -->
<g id="node3" class="node">
<title>Node3</title>
<g id="a_node3"><a xlink:href="classCFileType.html#a75b380f75def9d2fdbbec2c5a7f1ebed" target="_top" xlink:title=" ">
<polygon fill="white" stroke="black" points="229,-0.5 229,-19.5 334,-19.5 334,-0.5 229,-0.5"/>
<text text-anchor="middle" x="281.5" y="-7.5" font-family="Helvetica,sans-Serif" font-size="10.00">CFileType::setPath</text>
</a>
</g>
</g>
<!-- Node2&#45;&gt;Node3 -->
<g id="edge2" class="edge">
<title>Node2&#45;&gt;Node3</title>
<path fill="none" stroke="midnightblue" d="M193.23,-10C201.33,-10 209.9,-10 218.38,-10"/>
<polygon fill="midnightblue" stroke="midnightblue" points="218.64,-13.5 228.64,-10 218.64,-6.5 218.64,-13.5"/>
</g>
</g>
</svg>
