<?xml version="1.0" encoding="UTF-8" standalone="no"?>
<!DOCTYPE svg PUBLIC "-//W3C//DTD SVG 1.1//EN"
 "http://www.w3.org/Graphics/SVG/1.1/DTD/svg11.dtd">
<!-- Generated by graphviz version 2.43.0 (0)
 -->
<!-- Title: CLink::CLink Pages: 1 -->
<svg width="363pt" height="104pt"
 viewBox="0.00 0.00 363.00 104.00" xmlns="http://www.w3.org/2000/svg" xmlns:xlink="http://www.w3.org/1999/xlink">
<g id="graph0" class="graph" transform="scale(1 1) rotate(0) translate(4 100)">
<title>CLink::CLink</title>
<polygon fill="white" stroke="transparent" points="-4,4 -4,-100 359,-100 359,4 -4,4"/>
<!-- Node1 -->
<g id="node1" class="node">
<title>Node1</title>
<g id="a_node1"><a xlink:title=" ">
<polygon fill="#bfbfbf" stroke="black" points="0,-38.5 0,-57.5 77,-57.5 77,-38.5 0,-38.5"/>
<text text-anchor="middle" x="38.5" y="-45.5" font-family="Helvetica,sans-Serif" font-size="10.00">CLink::CLink</text>
</a>
</g>
</g>
<!-- Node2 -->
<g id="node2" class="node">
<title>Node2</title>
<g id="a_node2"><a xlink:href="classCLink.html#a8c630a971a100b6202f5a9c8f47db34a" target="_top" xlink:title=" ">
<polygon fill="white" stroke="black" points="113,-38.5 113,-57.5 214,-57.5 214,-38.5 113,-38.5"/>
<text text-anchor="middle" x="163.5" y="-45.5" font-family="Helvetica,sans-Serif" font-size="10.00">CLink::createLink</text>
</a>
</g>
</g>
<!-- Node1&#45;&gt;Node2 -->
<g id="edge1" class="edge">
<title>Node1&#45;&gt;Node2</title>
<path fill="none" stroke="midnightblue" d="M77.07,-48C85.2,-48 93.98,-48 102.72,-48"/>
<polygon fill="midnightblue" stroke="midnightblue" points="102.91,-51.5 112.91,-48 102.91,-44.5 102.91,-51.5"/>
</g>
<!-- Node3 -->
<g id="node3" class="node">
<title>Node3</title>
<g id="a_node3"><a xlink:href="CLink_8cpp.html#aedcc72c6519681d4970a701db5c905b4" target="_top" xlink:title=" ">
<polygon fill="white" stroke="black" points="272,-76.5 272,-95.5 333,-95.5 333,-76.5 272,-76.5"/>
<text text-anchor="middle" x="302.5" y="-83.5" font-family="Helvetica,sans-Serif" font-size="10.00">fileExists</text>
</a>
</g>
</g>
<!-- Node2&#45;&gt;Node3 -->
<g id="edge2" class="edge">
<title>Node2&#45;&gt;Node3</title>
<path fill="none" stroke="midnightblue" d="M199.07,-57.59C218.19,-62.89 242.04,-69.51 261.91,-75.02"/>
<polygon fill="midnightblue" stroke="midnightblue" points="261.02,-78.4 271.59,-77.7 262.89,-71.66 261.02,-78.4"/>
</g>
<!-- Node4 -->
<g id="node4" class="node">
<title>Node4</title>
<g id="a_node4"><a xlink:href="CLink_8cpp.html#a667f56441c178ef33bcf06285df030a8" target="_top" xlink:title=" ">
<polygon fill="white" stroke="black" points="270.5,-38.5 270.5,-57.5 334.5,-57.5 334.5,-38.5 270.5,-38.5"/>
<text text-anchor="middle" x="302.5" y="-45.5" font-family="Helvetica,sans-Serif" font-size="10.00">linkExists</text>
</a>
</g>
</g>
<!-- Node2&#45;&gt;Node4 -->
<g id="edge3" class="edge">
<title>Node2&#45;&gt;Node4</title>
<path fill="none" stroke="midnightblue" d="M214.35,-48C229.37,-48 245.69,-48 260.1,-48"/>
<polygon fill="midnightblue" stroke="midnightblue" points="260.21,-51.5 270.21,-48 260.21,-44.5 260.21,-51.5"/>
</g>
<!-- Node5 -->
<g id="node5" class="node">
<title>Node5</title>
<g id="a_node5"><a xlink:href="classCFileType.html#a75b380f75def9d2fdbbec2c5a7f1ebed" target="_top" xlink:title=" ">
<polygon fill="white" stroke="black" points="250,-0.5 250,-19.5 355,-19.5 355,-0.5 250,-0.5"/>
<text text-anchor="middle" x="302.5" y="-7.5" font-family="Helvetica,sans-Serif" font-size="10.00">CFileType::setPath</text>
</a>
</g>
</g>
<!-- Node2&#45;&gt;Node5 -->
<g id="edge4" class="edge">
<title>Node2&#45;&gt;Node5</title>
<path fill="none" stroke="midnightblue" d="M199.07,-38.41C216.68,-33.53 238.28,-27.54 257.1,-22.32"/>
<polygon fill="midnightblue" stroke="midnightblue" points="258.24,-25.63 266.94,-19.59 256.37,-18.89 258.24,-25.63"/>
</g>
</g>
</svg>
