<?xml version="1.0" encoding="UTF-8" standalone="no"?>
<!DOCTYPE svg PUBLIC "-//W3C//DTD SVG 1.1//EN"
 "http://www.w3.org/Graphics/SVG/1.1/DTD/svg11.dtd">
<!-- Generated by graphviz version 2.43.0 (0)
 -->
<!-- Title: CLink::createLink Pages: 1 -->
<svg width="250pt" height="104pt"
 viewBox="0.00 0.00 250.00 104.00" xmlns="http://www.w3.org/2000/svg" xmlns:xlink="http://www.w3.org/1999/xlink">
<g id="graph0" class="graph" transform="scale(1 1) rotate(0) translate(4 100)">
<title>CLink::createLink</title>
<polygon fill="white" stroke="transparent" points="-4,4 -4,-100 246,-100 246,4 -4,4"/>
<!-- Node1 -->
<g id="node1" class="node">
<title>Node1</title>
<g id="a_node1"><a xlink:title=" ">
<polygon fill="#bfbfbf" stroke="black" points="0,-38.5 0,-57.5 101,-57.5 101,-38.5 0,-38.5"/>
<text text-anchor="middle" x="50.5" y="-45.5" font-family="Helvetica,sans-Serif" font-size="10.00">CLink::createLink</text>
</a>
</g>
</g>
<!-- Node2 -->
<g id="node2" class="node">
<title>Node2</title>
<g id="a_node2"><a xlink:href="CLink_8cpp.html#aedcc72c6519681d4970a701db5c905b4" target="_top" xlink:title=" ">
<polygon fill="white" stroke="black" points="159,-76.5 159,-95.5 220,-95.5 220,-76.5 159,-76.5"/>
<text text-anchor="middle" x="189.5" y="-83.5" font-family="Helvetica,sans-Serif" font-size="10.00">fileExists</text>
</a>
</g>
</g>
<!-- Node1&#45;&gt;Node2 -->
<g id="edge1" class="edge">
<title>Node1&#45;&gt;Node2</title>
<path fill="none" stroke="midnightblue" d="M86.07,-57.59C105.19,-62.89 129.04,-69.51 148.91,-75.02"/>
<polygon fill="midnightblue" stroke="midnightblue" points="148.02,-78.4 158.59,-77.7 149.89,-71.66 148.02,-78.4"/>
</g>
<!-- Node3 -->
<g id="node3" class="node">
<title>Node3</title>
<g id="a_node3"><a xlink:href="CLink_8cpp.html#a667f56441c178ef33bcf06285df030a8" target="_top" xlink:title=" ">
<polygon fill="white" stroke="black" points="157.5,-38.5 157.5,-57.5 221.5,-57.5 221.5,-38.5 157.5,-38.5"/>
<text text-anchor="middle" x="189.5" y="-45.5" font-family="Helvetica,sans-Serif" font-size="10.00">linkExists</text>
</a>
</g>
</g>
<!-- Node1&#45;&gt;Node3 -->
<g id="edge2" class="edge">
<title>Node1&#45;&gt;Node3</title>
<path fill="none" stroke="midnightblue" d="M101.35,-48C116.37,-48 132.69,-48 147.1,-48"/>
<polygon fill="midnightblue" stroke="midnightblue" points="147.21,-51.5 157.21,-48 147.21,-44.5 147.21,-51.5"/>
</g>
<!-- Node4 -->
<g id="node4" class="node">
<title>Node4</title>
<g id="a_node4"><a xlink:href="classCFileType.html#a75b380f75def9d2fdbbec2c5a7f1ebed" target="_top" xlink:title=" ">
<polygon fill="white" stroke="black" points="137,-0.5 137,-19.5 242,-19.5 242,-0.5 137,-0.5"/>
<text text-anchor="middle" x="189.5" y="-7.5" font-family="Helvetica,sans-Serif" font-size="10.00">CFileType::setPath</text>
</a>
</g>
</g>
<!-- Node1&#45;&gt;Node4 -->
<g id="edge3" class="edge">
<title>Node1&#45;&gt;Node4</title>
<path fill="none" stroke="midnightblue" d="M86.07,-38.41C103.68,-33.53 125.28,-27.54 144.1,-22.32"/>
<polygon fill="midnightblue" stroke="midnightblue" points="145.24,-25.63 153.94,-19.59 143.37,-18.89 145.24,-25.63"/>
</g>
</g>
</svg>
