<?xml version="1.0" encoding="UTF-8" standalone="no"?>
<!DOCTYPE svg PUBLIC "-//W3C//DTD SVG 1.1//EN"
 "http://www.w3.org/Graphics/SVG/1.1/DTD/svg11.dtd">
<!-- Generated by graphviz version 2.43.0 (0)
 -->
<!-- Title: CLink::copyFile Pages: 1 -->
<svg width="239pt" height="66pt"
 viewBox="0.00 0.00 239.00 66.00" xmlns="http://www.w3.org/2000/svg" xmlns:xlink="http://www.w3.org/1999/xlink">
<g id="graph0" class="graph" transform="scale(1 1) rotate(0) translate(4 62)">
<title>CLink::copyFile</title>
<polygon fill="white" stroke="transparent" points="-4,4 -4,-62 235,-62 235,4 -4,4"/>
<!-- Node1 -->
<g id="node1" class="node">
<title>Node1</title>
<g id="a_node1"><a xlink:title=" ">
<polygon fill="#bfbfbf" stroke="black" points="0,-19.5 0,-38.5 90,-38.5 90,-19.5 0,-19.5"/>
<text text-anchor="middle" x="45" y="-26.5" font-family="Helvetica,sans-Serif" font-size="10.00">CLink::copyFile</text>
</a>
</g>
</g>
<!-- Node2 -->
<g id="node2" class="node">
<title>Node2</title>
<g id="a_node2"><a xlink:href="CLink_8cpp.html#a667f56441c178ef33bcf06285df030a8" target="_top" xlink:title=" ">
<polygon fill="white" stroke="black" points="146.5,-38.5 146.5,-57.5 210.5,-57.5 210.5,-38.5 146.5,-38.5"/>
<text text-anchor="middle" x="178.5" y="-45.5" font-family="Helvetica,sans-Serif" font-size="10.00">linkExists</text>
</a>
</g>
</g>
<!-- Node1&#45;&gt;Node2 -->
<g id="edge1" class="edge">
<title>Node1&#45;&gt;Node2</title>
<path fill="none" stroke="midnightblue" d="M90.15,-35.38C104.92,-37.51 121.33,-39.88 135.9,-41.99"/>
<polygon fill="midnightblue" stroke="midnightblue" points="135.73,-45.5 146.13,-43.47 136.74,-38.57 135.73,-45.5"/>
</g>
<!-- Node3 -->
<g id="node3" class="node">
<title>Node3</title>
<g id="a_node3"><a xlink:href="classCFileType.html#a75b380f75def9d2fdbbec2c5a7f1ebed" target="_top" xlink:title=" ">
<polygon fill="white" stroke="black" points="126,-0.5 126,-19.5 231,-19.5 231,-0.5 126,-0.5"/>
<text text-anchor="middle" x="178.5" y="-7.5" font-family="Helvetica,sans-Serif" font-size="10.00">CFileType::setPath</text>
</a>
</g>
</g>
<!-- Node1&#45;&gt;Node3 -->
<g id="edge2" class="edge">
<title>Node1&#45;&gt;Node3</title>
<path fill="none" stroke="midnightblue" d="M90.15,-22.62C98.41,-21.43 107.18,-20.16 115.86,-18.91"/>
<polygon fill="midnightblue" stroke="midnightblue" points="116.56,-22.34 125.96,-17.45 115.56,-15.41 116.56,-22.34"/>
</g>
</g>
</svg>
