<?xml version="1.0" encoding="UTF-8" standalone="no"?>
<!DOCTYPE svg PUBLIC "-//W3C//DTD SVG 1.1//EN"
 "http://www.w3.org/Graphics/SVG/1.1/DTD/svg11.dtd">
<!-- Generated by graphviz version 2.43.0 (0)
 -->
<!-- Title: CFileType::setPath Pages: 1 -->
<svg width="492pt" height="446pt"
 viewBox="0.00 0.00 492.00 446.00" xmlns="http://www.w3.org/2000/svg" xmlns:xlink="http://www.w3.org/1999/xlink">
<g id="graph0" class="graph" transform="scale(1 1) rotate(0) translate(4 442)">
<title>CFileType::setPath</title>
<polygon fill="white" stroke="transparent" points="-4,4 -4,-442 488,-442 488,4 -4,4"/>
<!-- Node1 -->
<g id="node1" class="node">
<title>Node1</title>
<g id="a_node1"><a xlink:title=" ">
<polygon fill="#bfbfbf" stroke="black" points="379,-209.5 379,-228.5 484,-228.5 484,-209.5 379,-209.5"/>
<text text-anchor="middle" x="431.5" y="-216.5" font-family="Helvetica,sans-Serif" font-size="10.00">CFileType::setPath</text>
</a>
</g>
</g>
<!-- Node2 -->
<g id="node2" class="node">
<title>Node2</title>
<g id="a_node2"><a xlink:href="classCDir.html#a5d8c4555565d3c284c6a02780924a514" target="_top" xlink:title=" ">
<polygon fill="white" stroke="black" points="250.5,-418.5 250.5,-437.5 334.5,-437.5 334.5,-418.5 250.5,-418.5"/>
<text text-anchor="middle" x="292.5" y="-425.5" font-family="Helvetica,sans-Serif" font-size="10.00">CDir::copyFile</text>
</a>
</g>
</g>
<!-- Node1&#45;&gt;Node2 -->
<g id="edge1" class="edge">
<title>Node1&#45;&gt;Node2</title>
<path fill="none" stroke="midnightblue" d="M426.62,-238.64C418.12,-276.67 394.38,-360.86 343,-409 338.9,-412.84 333.95,-415.93 328.78,-418.4"/>
<polygon fill="midnightblue" stroke="midnightblue" points="430.05,-239.31 428.7,-228.8 423.2,-237.86 430.05,-239.31"/>
</g>
<!-- Node3 -->
<g id="node3" class="node">
<title>Node3</title>
<g id="a_node3"><a xlink:href="classCFile.html#a1c802397d98368be12fd32b2e1309288" target="_top" xlink:title=" ">
<polygon fill="white" stroke="black" points="249,-380.5 249,-399.5 336,-399.5 336,-380.5 249,-380.5"/>
<text text-anchor="middle" x="292.5" y="-387.5" font-family="Helvetica,sans-Serif" font-size="10.00">CFile::copyFile</text>
</a>
</g>
</g>
<!-- Node1&#45;&gt;Node3 -->
<g id="edge2" class="edge">
<title>Node1&#45;&gt;Node3</title>
<path fill="none" stroke="midnightblue" d="M424.27,-238.17C412.98,-270.03 386.25,-334.02 343,-371 338.52,-374.83 333.19,-377.93 327.71,-380.43"/>
<polygon fill="midnightblue" stroke="midnightblue" points="427.59,-239.28 427.5,-228.69 420.96,-237.02 427.59,-239.28"/>
</g>
<!-- Node5 -->
<g id="node5" class="node">
<title>Node5</title>
<g id="a_node5"><a xlink:href="classCLink.html#aac39d4f419f78e238bfd701004e30c5b" target="_top" xlink:title=" ">
<polygon fill="white" stroke="black" points="247.5,-342.5 247.5,-361.5 337.5,-361.5 337.5,-342.5 247.5,-342.5"/>
<text text-anchor="middle" x="292.5" y="-349.5" font-family="Helvetica,sans-Serif" font-size="10.00">CLink::copyFile</text>
</a>
</g>
</g>
<!-- Node1&#45;&gt;Node5 -->
<g id="edge4" class="edge">
<title>Node1&#45;&gt;Node5</title>
<path fill="none" stroke="midnightblue" d="M420.65,-237.51C406.53,-262.42 378.3,-306.65 343,-333 337.91,-336.8 331.97,-339.93 326,-342.48"/>
<polygon fill="midnightblue" stroke="midnightblue" points="423.75,-239.14 425.51,-228.69 417.62,-235.76 423.75,-239.14"/>
</g>
<!-- Node6 -->
<g id="node6" class="node">
<title>Node6</title>
<g id="a_node6"><a xlink:href="classCDir.html#a7330c962cb1e9b83c49249504a6f8c13" target="_top" xlink:title=" ">
<polygon fill="white" stroke="black" points="246.5,-266.5 246.5,-285.5 338.5,-285.5 338.5,-266.5 246.5,-266.5"/>
<text text-anchor="middle" x="292.5" y="-273.5" font-family="Helvetica,sans-Serif" font-size="10.00">CDir::createFile</text>
</a>
</g>
</g>
<!-- Node1&#45;&gt;Node6 -->
<g id="edge6" class="edge">
<title>Node1&#45;&gt;Node6</title>
<path fill="none" stroke="midnightblue" d="M399.75,-232.74C383.04,-240.11 361.97,-249.25 343,-257 335.25,-260.17 326.75,-263.49 319.02,-266.45"/>
<polygon fill="midnightblue" stroke="midnightblue" points="401.31,-235.88 409.03,-228.63 398.47,-229.48 401.31,-235.88"/>
</g>
<!-- Node9 -->
<g id="node9" class="node">
<title>Node9</title>
<g id="a_node9"><a xlink:href="classCFile.html#a0fd10f65610c3917f3795eabb94624e2" target="_top" xlink:title=" ">
<polygon fill="white" stroke="black" points="245,-228.5 245,-247.5 340,-247.5 340,-228.5 245,-228.5"/>
<text text-anchor="middle" x="292.5" y="-235.5" font-family="Helvetica,sans-Serif" font-size="10.00">CFile::createFile</text>
</a>
</g>
</g>
<!-- Node1&#45;&gt;Node9 -->
<g id="edge9" class="edge">
<title>Node1&#45;&gt;Node9</title>
<path fill="none" stroke="midnightblue" d="M368.55,-227.59C359.09,-228.9 349.47,-230.24 340.41,-231.49"/>
<polygon fill="midnightblue" stroke="midnightblue" points="369.28,-231.02 378.71,-226.18 368.32,-224.09 369.28,-231.02"/>
</g>
<!-- Node12 -->
<g id="node12" class="node">
<title>Node12</title>
<g id="a_node12"><a xlink:href="classCLink.html#a8c630a971a100b6202f5a9c8f47db34a" target="_top" xlink:title=" ">
<polygon fill="white" stroke="black" points="242,-0.5 242,-19.5 343,-19.5 343,-0.5 242,-0.5"/>
<text text-anchor="middle" x="292.5" y="-7.5" font-family="Helvetica,sans-Serif" font-size="10.00">CLink::createLink</text>
</a>
</g>
</g>
<!-- Node1&#45;&gt;Node12 -->
<g id="edge12" class="edge">
<title>Node1&#45;&gt;Node12</title>
<path fill="none" stroke="midnightblue" d="M426.62,-199.36C418.12,-161.33 394.38,-77.14 343,-29 338.9,-25.16 333.95,-22.07 328.78,-19.6"/>
<polygon fill="midnightblue" stroke="midnightblue" points="423.2,-200.14 428.7,-209.2 430.05,-198.69 423.2,-200.14"/>
</g>
<!-- Node15 -->
<g id="node15" class="node">
<title>Node15</title>
<g id="a_node15"><a xlink:href="classCDir.html#ac825989ebdb876bff94cfdcb1738b730" target="_top" xlink:title=" ">
<polygon fill="white" stroke="black" points="246.5,-190.5 246.5,-209.5 338.5,-209.5 338.5,-190.5 246.5,-190.5"/>
<text text-anchor="middle" x="292.5" y="-197.5" font-family="Helvetica,sans-Serif" font-size="10.00">CDir::deleteFile</text>
</a>
</g>
</g>
<!-- Node1&#45;&gt;Node15 -->
<g id="edge15" class="edge">
<title>Node1&#45;&gt;Node15</title>
<path fill="none" stroke="midnightblue" d="M368.69,-210.43C358.57,-209.02 348.25,-207.59 338.63,-206.26"/>
<polygon fill="midnightblue" stroke="midnightblue" points="368.32,-213.91 378.71,-211.82 369.28,-206.98 368.32,-213.91"/>
</g>
<!-- Node16 -->
<g id="node16" class="node">
<title>Node16</title>
<g id="a_node16"><a xlink:href="classCFile.html#a6e80c646b82e3177223b5215b5a5a5c2" target="_top" xlink:title=" ">
<polygon fill="white" stroke="black" points="245,-152.5 245,-171.5 340,-171.5 340,-152.5 245,-152.5"/>
<text text-anchor="middle" x="292.5" y="-159.5" font-family="Helvetica,sans-Serif" font-size="10.00">CFile::deleteFile</text>
</a>
</g>
</g>
<!-- Node1&#45;&gt;Node16 -->
<g id="edge16" class="edge">
<title>Node1&#45;&gt;Node16</title>
<path fill="none" stroke="midnightblue" d="M399.75,-205.26C383.04,-197.89 361.97,-188.75 343,-181 335.25,-177.83 326.75,-174.51 319.02,-171.55"/>
<polygon fill="midnightblue" stroke="midnightblue" points="398.47,-208.52 409.03,-209.37 401.31,-202.12 398.47,-208.52"/>
</g>
<!-- Node17 -->
<g id="node17" class="node">
<title>Node17</title>
<g id="a_node17"><a xlink:href="classCLink.html#a3c88c5e9bc4c975ada9e512cdf339cf4" target="_top" xlink:title=" ">
<polygon fill="white" stroke="black" points="243.5,-114.5 243.5,-133.5 341.5,-133.5 341.5,-114.5 243.5,-114.5"/>
<text text-anchor="middle" x="292.5" y="-121.5" font-family="Helvetica,sans-Serif" font-size="10.00">CLink::deleteFile</text>
</a>
</g>
</g>
<!-- Node1&#45;&gt;Node17 -->
<g id="edge17" class="edge">
<title>Node1&#45;&gt;Node17</title>
<path fill="none" stroke="midnightblue" d="M414.41,-201.9C397.83,-185.07 370.57,-159.56 343,-143 336.92,-139.35 330.02,-136.18 323.35,-133.52"/>
<polygon fill="midnightblue" stroke="midnightblue" points="412.18,-204.63 421.65,-209.38 417.21,-199.76 412.18,-204.63"/>
</g>
<!-- Node18 -->
<g id="node18" class="node">
<title>Node18</title>
<g id="a_node18"><a xlink:href="classCDir.html#a661a80c6f2f3a919cd7f8edd6bccc5a7" target="_top" xlink:title=" ">
<polygon fill="white" stroke="black" points="248,-76.5 248,-95.5 337,-95.5 337,-76.5 248,-76.5"/>
<text text-anchor="middle" x="292.5" y="-83.5" font-family="Helvetica,sans-Serif" font-size="10.00">CDir::moveFile</text>
</a>
</g>
</g>
<!-- Node1&#45;&gt;Node18 -->
<g id="edge18" class="edge">
<title>Node1&#45;&gt;Node18</title>
<path fill="none" stroke="midnightblue" d="M420.65,-200.49C406.53,-175.58 378.3,-131.35 343,-105 337.91,-101.2 331.97,-98.07 326,-95.52"/>
<polygon fill="midnightblue" stroke="midnightblue" points="417.62,-202.24 425.51,-209.31 423.75,-198.86 417.62,-202.24"/>
</g>
<!-- Node19 -->
<g id="node19" class="node">
<title>Node19</title>
<g id="a_node19"><a xlink:href="classCFile.html#a92ccfb9e9461c6cd9f7d64e0cd9eed3a" target="_top" xlink:title=" ">
<polygon fill="white" stroke="black" points="246.5,-38.5 246.5,-57.5 338.5,-57.5 338.5,-38.5 246.5,-38.5"/>
<text text-anchor="middle" x="292.5" y="-45.5" font-family="Helvetica,sans-Serif" font-size="10.00">CFile::moveFile</text>
</a>
</g>
</g>
<!-- Node1&#45;&gt;Node19 -->
<g id="edge19" class="edge">
<title>Node1&#45;&gt;Node19</title>
<path fill="none" stroke="midnightblue" d="M424.27,-199.83C412.98,-167.97 386.25,-103.98 343,-67 338.52,-63.17 333.19,-60.07 327.71,-57.57"/>
<polygon fill="midnightblue" stroke="midnightblue" points="420.96,-200.98 427.5,-209.31 427.59,-198.72 420.96,-200.98"/>
</g>
<!-- Node20 -->
<g id="node20" class="node">
<title>Node20</title>
<g id="a_node20"><a xlink:href="classCLink.html#af41a3dec8c3388031513d17291f53e05" target="_top" xlink:title=" ">
<polygon fill="white" stroke="black" points="245,-304.5 245,-323.5 340,-323.5 340,-304.5 245,-304.5"/>
<text text-anchor="middle" x="292.5" y="-311.5" font-family="Helvetica,sans-Serif" font-size="10.00">CLink::moveFile</text>
</a>
</g>
</g>
<!-- Node1&#45;&gt;Node20 -->
<g id="edge20" class="edge">
<title>Node1&#45;&gt;Node20</title>
<path fill="none" stroke="midnightblue" d="M414.41,-236.1C397.83,-252.93 370.57,-278.44 343,-295 336.92,-298.65 330.02,-301.82 323.35,-304.48"/>
<polygon fill="midnightblue" stroke="midnightblue" points="417.21,-238.24 421.65,-228.62 412.18,-233.37 417.21,-238.24"/>
</g>
<!-- Node4 -->
<g id="node4" class="node">
<title>Node4</title>
<g id="a_node4"><a xlink:href="Main_8cpp.html#ae66f6b31b5ad750f1fe042a706a4e3d4" target="_top" xlink:title=" ">
<polygon fill="white" stroke="black" points="147,-342.5 147,-361.5 188,-361.5 188,-342.5 147,-342.5"/>
<text text-anchor="middle" x="167.5" y="-349.5" font-family="Helvetica,sans-Serif" font-size="10.00">main</text>
</a>
</g>
</g>
<!-- Node3&#45;&gt;Node4 -->
<g id="edge3" class="edge">
<title>Node3&#45;&gt;Node4</title>
<path fill="none" stroke="midnightblue" d="M250.81,-377.43C229.83,-370.95 205.17,-363.33 188.36,-358.13"/>
<polygon fill="midnightblue" stroke="midnightblue" points="249.87,-380.8 260.46,-380.41 251.94,-374.12 249.87,-380.8"/>
</g>
<!-- Node5&#45;&gt;Node4 -->
<g id="edge5" class="edge">
<title>Node5&#45;&gt;Node4</title>
<path fill="none" stroke="midnightblue" d="M237.29,-352C219.81,-352 201.54,-352 188.22,-352"/>
<polygon fill="midnightblue" stroke="midnightblue" points="237.44,-355.5 247.44,-352 237.44,-348.5 237.44,-355.5"/>
</g>
<!-- Node7 -->
<g id="node7" class="node">
<title>Node7</title>
<g id="a_node7"><a xlink:href="classCDir.html#a87781b574d6d967897a31d82d865f540" target="_top" xlink:title=" ">
<polygon fill="white" stroke="black" points="135,-266.5 135,-285.5 200,-285.5 200,-266.5 135,-266.5"/>
<text text-anchor="middle" x="167.5" y="-273.5" font-family="Helvetica,sans-Serif" font-size="10.00">CDir::CDir</text>
</a>
</g>
</g>
<!-- Node6&#45;&gt;Node7 -->
<g id="edge7" class="edge">
<title>Node6&#45;&gt;Node7</title>
<path fill="none" stroke="midnightblue" d="M236.15,-276C223.81,-276 211.13,-276 200.14,-276"/>
<polygon fill="midnightblue" stroke="midnightblue" points="236.4,-279.5 246.4,-276 236.4,-272.5 236.4,-279.5"/>
</g>
<!-- Node8 -->
<g id="node8" class="node">
<title>Node8</title>
<g id="a_node8"><a xlink:href="classCDir.html#a8580393e8bfb6e2d20548f9bfdfc3c82" target="_top" xlink:title=" ">
<polygon fill="white" stroke="black" points="3,-266.5 3,-285.5 90,-285.5 90,-266.5 3,-266.5"/>
<text text-anchor="middle" x="46.5" y="-273.5" font-family="Helvetica,sans-Serif" font-size="10.00">CDir::cloneFile</text>
</a>
</g>
</g>
<!-- Node7&#45;&gt;Node8 -->
<g id="edge8" class="edge">
<title>Node7&#45;&gt;Node8</title>
<path fill="none" stroke="midnightblue" d="M124.63,-276C113.55,-276 101.57,-276 90.43,-276"/>
<polygon fill="midnightblue" stroke="midnightblue" points="124.92,-279.5 134.92,-276 124.92,-272.5 124.92,-279.5"/>
</g>
<!-- Node10 -->
<g id="node10" class="node">
<title>Node10</title>
<g id="a_node10"><a xlink:href="classCFile.html#a868af7784dfe194d94bc4de002d2d07c" target="_top" xlink:title=" ">
<polygon fill="white" stroke="black" points="132,-228.5 132,-247.5 203,-247.5 203,-228.5 132,-228.5"/>
<text text-anchor="middle" x="167.5" y="-235.5" font-family="Helvetica,sans-Serif" font-size="10.00">CFile::CFile</text>
</a>
</g>
</g>
<!-- Node9&#45;&gt;Node10 -->
<g id="edge10" class="edge">
<title>Node9&#45;&gt;Node10</title>
<path fill="none" stroke="midnightblue" d="M234.77,-238C223.99,-238 213.01,-238 203.18,-238"/>
<polygon fill="midnightblue" stroke="midnightblue" points="235,-241.5 245,-238 235,-234.5 235,-241.5"/>
</g>
<!-- Node11 -->
<g id="node11" class="node">
<title>Node11</title>
<g id="a_node11"><a xlink:href="classCFile.html#a5d2abc5f8a1ad951881b04a42cb16210" target="_top" xlink:title=" ">
<polygon fill="white" stroke="black" points="1.5,-228.5 1.5,-247.5 91.5,-247.5 91.5,-228.5 1.5,-228.5"/>
<text text-anchor="middle" x="46.5" y="-235.5" font-family="Helvetica,sans-Serif" font-size="10.00">CFile::cloneFile</text>
</a>
</g>
</g>
<!-- Node10&#45;&gt;Node11 -->
<g id="edge11" class="edge">
<title>Node10&#45;&gt;Node11</title>
<path fill="none" stroke="midnightblue" d="M121.49,-238C111.78,-238 101.51,-238 91.83,-238"/>
<polygon fill="midnightblue" stroke="midnightblue" points="121.76,-241.5 131.76,-238 121.76,-234.5 121.76,-241.5"/>
</g>
<!-- Node13 -->
<g id="node13" class="node">
<title>Node13</title>
<g id="a_node13"><a xlink:href="classCLink.html#a50e56677aad68a199da94c317819f465" target="_top" xlink:title=" ">
<polygon fill="white" stroke="black" points="129,-0.5 129,-19.5 206,-19.5 206,-0.5 129,-0.5"/>
<text text-anchor="middle" x="167.5" y="-7.5" font-family="Helvetica,sans-Serif" font-size="10.00">CLink::CLink</text>
</a>
</g>
</g>
<!-- Node12&#45;&gt;Node13 -->
<g id="edge13" class="edge">
<title>Node12&#45;&gt;Node13</title>
<path fill="none" stroke="midnightblue" d="M231.71,-10C223.04,-10 214.32,-10 206.25,-10"/>
<polygon fill="midnightblue" stroke="midnightblue" points="231.83,-13.5 241.83,-10 231.83,-6.5 231.83,-13.5"/>
</g>
<!-- Node14 -->
<g id="node14" class="node">
<title>Node14</title>
<g id="a_node14"><a xlink:href="classCLink.html#ac37d10164ddd8a8be3d7841e90c7be85" target="_top" xlink:title=" ">
<polygon fill="white" stroke="black" points="0,-0.5 0,-19.5 93,-19.5 93,-0.5 0,-0.5"/>
<text text-anchor="middle" x="46.5" y="-7.5" font-family="Helvetica,sans-Serif" font-size="10.00">CLink::cloneFile</text>
</a>
</g>
</g>
<!-- Node13&#45;&gt;Node14 -->
<g id="edge14" class="edge">
<title>Node13&#45;&gt;Node14</title>
<path fill="none" stroke="midnightblue" d="M118.79,-10C110.37,-10 101.62,-10 93.25,-10"/>
<polygon fill="midnightblue" stroke="midnightblue" points="118.85,-13.5 128.85,-10 118.85,-6.5 118.85,-13.5"/>
</g>
<!-- Node20&#45;&gt;Node4 -->
<g id="edge21" class="edge">
<title>Node20&#45;&gt;Node4</title>
<path fill="none" stroke="midnightblue" d="M250.81,-326.57C229.83,-333.05 205.17,-340.67 188.36,-345.87"/>
<polygon fill="midnightblue" stroke="midnightblue" points="251.94,-329.88 260.46,-323.59 249.87,-323.2 251.94,-329.88"/>
</g>
</g>
</svg>
