<?xml version="1.0" encoding="UTF-8" standalone="no"?>
<!DOCTYPE svg PUBLIC "-//W3C//DTD SVG 1.1//EN"
 "http://www.w3.org/Graphics/SVG/1.1/DTD/svg11.dtd">
<!-- Generated by graphviz version 2.43.0 (0)
 -->
<!-- Title: CLink::cloneFile Pages: 1 -->
<svg width="492pt" height="104pt"
 viewBox="0.00 0.00 492.00 104.00" xmlns="http://www.w3.org/2000/svg" xmlns:xlink="http://www.w3.org/1999/xlink">
<g id="graph0" class="graph" transform="scale(1 1) rotate(0) translate(4 100)">
<title>CLink::cloneFile</title>
<polygon fill="white" stroke="transparent" points="-4,4 -4,-100 488,-100 488,4 -4,4"/>
<!-- Node1 -->
<g id="node1" class="node">
<title>Node1</title>
<g id="a_node1"><a xlink:title=" ">
<polygon fill="#bfbfbf" stroke="black" points="0,-38.5 0,-57.5 93,-57.5 93,-38.5 0,-38.5"/>
<text text-anchor="middle" x="46.5" y="-45.5" font-family="Helvetica,sans-Serif" font-size="10.00">CLink::cloneFile</text>
</a>
</g>
</g>
<!-- Node2 -->
<g id="node2" class="node">
<title>Node2</title>
<g id="a_node2"><a xlink:href="classCLink.html#a50e56677aad68a199da94c317819f465" target="_top" xlink:title=" ">
<polygon fill="white" stroke="black" points="129,-38.5 129,-57.5 206,-57.5 206,-38.5 129,-38.5"/>
<text text-anchor="middle" x="167.5" y="-45.5" font-family="Helvetica,sans-Serif" font-size="10.00">CLink::CLink</text>
</a>
</g>
</g>
<!-- Node1&#45;&gt;Node2 -->
<g id="edge1" class="edge">
<title>Node1&#45;&gt;Node2</title>
<path fill="none" stroke="midnightblue" d="M93.17,-48C101.56,-48 110.33,-48 118.78,-48"/>
<polygon fill="midnightblue" stroke="midnightblue" points="118.87,-51.5 128.87,-48 118.87,-44.5 118.87,-51.5"/>
</g>
<!-- Node3 -->
<g id="node3" class="node">
<title>Node3</title>
<g id="a_node3"><a xlink:href="classCLink.html#a8c630a971a100b6202f5a9c8f47db34a" target="_top" xlink:title=" ">
<polygon fill="white" stroke="black" points="242,-38.5 242,-57.5 343,-57.5 343,-38.5 242,-38.5"/>
<text text-anchor="middle" x="292.5" y="-45.5" font-family="Helvetica,sans-Serif" font-size="10.00">CLink::createLink</text>
</a>
</g>
</g>
<!-- Node2&#45;&gt;Node3 -->
<g id="edge2" class="edge">
<title>Node2&#45;&gt;Node3</title>
<path fill="none" stroke="midnightblue" d="M206.07,-48C214.2,-48 222.98,-48 231.72,-48"/>
<polygon fill="midnightblue" stroke="midnightblue" points="231.91,-51.5 241.91,-48 231.91,-44.5 231.91,-51.5"/>
</g>
<!-- Node4 -->
<g id="node4" class="node">
<title>Node4</title>
<g id="a_node4"><a xlink:href="CLink_8cpp.html#aedcc72c6519681d4970a701db5c905b4" target="_top" xlink:title=" ">
<polygon fill="white" stroke="black" points="401,-76.5 401,-95.5 462,-95.5 462,-76.5 401,-76.5"/>
<text text-anchor="middle" x="431.5" y="-83.5" font-family="Helvetica,sans-Serif" font-size="10.00">fileExists</text>
</a>
</g>
</g>
<!-- Node3&#45;&gt;Node4 -->
<g id="edge3" class="edge">
<title>Node3&#45;&gt;Node4</title>
<path fill="none" stroke="midnightblue" d="M328.07,-57.59C347.19,-62.89 371.04,-69.51 390.91,-75.02"/>
<polygon fill="midnightblue" stroke="midnightblue" points="390.02,-78.4 400.59,-77.7 391.89,-71.66 390.02,-78.4"/>
</g>
<!-- Node5 -->
<g id="node5" class="node">
<title>Node5</title>
<g id="a_node5"><a xlink:href="CLink_8cpp.html#a667f56441c178ef33bcf06285df030a8" target="_top" xlink:title=" ">
<polygon fill="white" stroke="black" points="399.5,-38.5 399.5,-57.5 463.5,-57.5 463.5,-38.5 399.5,-38.5"/>
<text text-anchor="middle" x="431.5" y="-45.5" font-family="Helvetica,sans-Serif" font-size="10.00">linkExists</text>
</a>
</g>
</g>
<!-- Node3&#45;&gt;Node5 -->
<g id="edge4" class="edge">
<title>Node3&#45;&gt;Node5</title>
<path fill="none" stroke="midnightblue" d="M343.35,-48C358.37,-48 374.69,-48 389.1,-48"/>
<polygon fill="midnightblue" stroke="midnightblue" points="389.21,-51.5 399.21,-48 389.21,-44.5 389.21,-51.5"/>
</g>
<!-- Node6 -->
<g id="node6" class="node">
<title>Node6</title>
<g id="a_node6"><a xlink:href="classCFileType.html#a75b380f75def9d2fdbbec2c5a7f1ebed" target="_top" xlink:title=" ">
<polygon fill="white" stroke="black" points="379,-0.5 379,-19.5 484,-19.5 484,-0.5 379,-0.5"/>
<text text-anchor="middle" x="431.5" y="-7.5" font-family="Helvetica,sans-Serif" font-size="10.00">CFileType::setPath</text>
</a>
</g>
</g>
<!-- Node3&#45;&gt;Node6 -->
<g id="edge5" class="edge">
<title>Node3&#45;&gt;Node6</title>
<path fill="none" stroke="midnightblue" d="M328.07,-38.41C345.68,-33.53 367.28,-27.54 386.1,-22.32"/>
<polygon fill="midnightblue" stroke="midnightblue" points="387.24,-25.63 395.94,-19.59 385.37,-18.89 387.24,-25.63"/>
</g>
</g>
</svg>
