<?xml version="1.0" encoding="UTF-8" standalone="no"?>
<!DOCTYPE svg PUBLIC "-//W3C//DTD SVG 1.1//EN"
 "http://www.w3.org/Graphics/SVG/1.1/DTD/svg11.dtd">
<!-- Generated by graphviz version 2.43.0 (0)
 -->
<!-- Title: CFile::CFile Pages: 1 -->
<svg width="351pt" height="66pt"
 viewBox="0.00 0.00 351.00 66.00" xmlns="http://www.w3.org/2000/svg" xmlns:xlink="http://www.w3.org/1999/xlink">
<g id="graph0" class="graph" transform="scale(1 1) rotate(0) translate(4 62)">
<title>CFile::CFile</title>
<polygon fill="white" stroke="transparent" points="-4,4 -4,-62 347,-62 347,4 -4,4"/>
<!-- Node1 -->
<g id="node1" class="node">
<title>Node1</title>
<g id="a_node1"><a xlink:title=" ">
<polygon fill="#bfbfbf" stroke="black" points="0,-19.5 0,-38.5 71,-38.5 71,-19.5 0,-19.5"/>
<text text-anchor="middle" x="35.5" y="-26.5" font-family="Helvetica,sans-Serif" font-size="10.00">CFile::CFile</text>
</a>
</g>
</g>
<!-- Node2 -->
<g id="node2" class="node">
<title>Node2</title>
<g id="a_node2"><a xlink:href="classCFile.html#a0fd10f65610c3917f3795eabb94624e2" target="_top" xlink:title=" ">
<polygon fill="white" stroke="black" points="107,-19.5 107,-38.5 202,-38.5 202,-19.5 107,-19.5"/>
<text text-anchor="middle" x="154.5" y="-26.5" font-family="Helvetica,sans-Serif" font-size="10.00">CFile::createFile</text>
</a>
</g>
</g>
<!-- Node1&#45;&gt;Node2 -->
<g id="edge1" class="edge">
<title>Node1&#45;&gt;Node2</title>
<path fill="none" stroke="midnightblue" d="M71.29,-29C79.32,-29 88.08,-29 96.78,-29"/>
<polygon fill="midnightblue" stroke="midnightblue" points="96.93,-32.5 106.93,-29 96.93,-25.5 96.93,-32.5"/>
</g>
<!-- Node3 -->
<g id="node3" class="node">
<title>Node3</title>
<g id="a_node3"><a xlink:href="CFile_8cpp.html#af61eef88c54496e05a927a667ac66f06" target="_top" xlink:title=" ">
<polygon fill="white" stroke="black" points="252,-38.5 252,-57.5 329,-57.5 329,-38.5 252,-38.5"/>
<text text-anchor="middle" x="290.5" y="-45.5" font-family="Helvetica,sans-Serif" font-size="10.00">isAccessible</text>
</a>
</g>
</g>
<!-- Node2&#45;&gt;Node3 -->
<g id="edge2" class="edge">
<title>Node2&#45;&gt;Node3</title>
<path fill="none" stroke="midnightblue" d="M202.37,-35.65C215.11,-37.45 228.93,-39.41 241.72,-41.23"/>
<polygon fill="midnightblue" stroke="midnightblue" points="241.33,-44.7 251.72,-42.64 242.31,-37.77 241.33,-44.7"/>
</g>
<!-- Node4 -->
<g id="node4" class="node">
<title>Node4</title>
<g id="a_node4"><a xlink:href="classCFileType.html#a75b380f75def9d2fdbbec2c5a7f1ebed" target="_top" xlink:title=" ">
<polygon fill="white" stroke="black" points="238,-0.5 238,-19.5 343,-19.5 343,-0.5 238,-0.5"/>
<text text-anchor="middle" x="290.5" y="-7.5" font-family="Helvetica,sans-Serif" font-size="10.00">CFileType::setPath</text>
</a>
</g>
</g>
<!-- Node2&#45;&gt;Node4 -->
<g id="edge3" class="edge">
<title>Node2&#45;&gt;Node4</title>
<path fill="none" stroke="midnightblue" d="M202.37,-22.35C210.61,-21.19 219.31,-19.95 227.88,-18.74"/>
<polygon fill="midnightblue" stroke="midnightblue" points="228.45,-22.19 237.86,-17.32 227.47,-15.26 228.45,-22.19"/>
</g>
</g>
</svg>
