<?xml version="1.0" encoding="UTF-8" standalone="no"?>
<!DOCTYPE svg PUBLIC "-//W3C//DTD SVG 1.1//EN"
 "http://www.w3.org/Graphics/SVG/1.1/DTD/svg11.dtd">
<!-- Generated by graphviz version 2.43.0 (0)
 -->
<!-- Title: CFile::cloneFile Pages: 1 -->
<svg width="477pt" height="66pt"
 viewBox="0.00 0.00 477.00 66.00" xmlns="http://www.w3.org/2000/svg" xmlns:xlink="http://www.w3.org/1999/xlink">
<g id="graph0" class="graph" transform="scale(1 1) rotate(0) translate(4 62)">
<title>CFile::cloneFile</title>
<polygon fill="white" stroke="transparent" points="-4,4 -4,-62 473,-62 473,4 -4,4"/>
<!-- Node1 -->
<g id="node1" class="node">
<title>Node1</title>
<g id="a_node1"><a xlink:title=" ">
<polygon fill="#bfbfbf" stroke="black" points="0,-19.5 0,-38.5 90,-38.5 90,-19.5 0,-19.5"/>
<text text-anchor="middle" x="45" y="-26.5" font-family="Helvetica,sans-Serif" font-size="10.00">CFile::cloneFile</text>
</a>
</g>
</g>
<!-- Node2 -->
<g id="node2" class="node">
<title>Node2</title>
<g id="a_node2"><a xlink:href="classCFile.html#a868af7784dfe194d94bc4de002d2d07c" target="_top" xlink:title=" ">
<polygon fill="white" stroke="black" points="126,-19.5 126,-38.5 197,-38.5 197,-19.5 126,-19.5"/>
<text text-anchor="middle" x="161.5" y="-26.5" font-family="Helvetica,sans-Serif" font-size="10.00">CFile::CFile</text>
</a>
</g>
</g>
<!-- Node1&#45;&gt;Node2 -->
<g id="edge1" class="edge">
<title>Node1&#45;&gt;Node2</title>
<path fill="none" stroke="midnightblue" d="M90.27,-29C98.68,-29 107.49,-29 115.91,-29"/>
<polygon fill="midnightblue" stroke="midnightblue" points="115.94,-32.5 125.94,-29 115.94,-25.5 115.94,-32.5"/>
</g>
<!-- Node3 -->
<g id="node3" class="node">
<title>Node3</title>
<g id="a_node3"><a xlink:href="classCFile.html#a0fd10f65610c3917f3795eabb94624e2" target="_top" xlink:title=" ">
<polygon fill="white" stroke="black" points="233,-19.5 233,-38.5 328,-38.5 328,-19.5 233,-19.5"/>
<text text-anchor="middle" x="280.5" y="-26.5" font-family="Helvetica,sans-Serif" font-size="10.00">CFile::createFile</text>
</a>
</g>
</g>
<!-- Node2&#45;&gt;Node3 -->
<g id="edge2" class="edge">
<title>Node2&#45;&gt;Node3</title>
<path fill="none" stroke="midnightblue" d="M197.29,-29C205.32,-29 214.08,-29 222.78,-29"/>
<polygon fill="midnightblue" stroke="midnightblue" points="222.93,-32.5 232.93,-29 222.93,-25.5 222.93,-32.5"/>
</g>
<!-- Node4 -->
<g id="node4" class="node">
<title>Node4</title>
<g id="a_node4"><a xlink:href="CFile_8cpp.html#af61eef88c54496e05a927a667ac66f06" target="_top" xlink:title=" ">
<polygon fill="white" stroke="black" points="378,-38.5 378,-57.5 455,-57.5 455,-38.5 378,-38.5"/>
<text text-anchor="middle" x="416.5" y="-45.5" font-family="Helvetica,sans-Serif" font-size="10.00">isAccessible</text>
</a>
</g>
</g>
<!-- Node3&#45;&gt;Node4 -->
<g id="edge3" class="edge">
<title>Node3&#45;&gt;Node4</title>
<path fill="none" stroke="midnightblue" d="M328.37,-35.65C341.11,-37.45 354.93,-39.41 367.72,-41.23"/>
<polygon fill="midnightblue" stroke="midnightblue" points="367.33,-44.7 377.72,-42.64 368.31,-37.77 367.33,-44.7"/>
</g>
<!-- Node5 -->
<g id="node5" class="node">
<title>Node5</title>
<g id="a_node5"><a xlink:href="classCFileType.html#a75b380f75def9d2fdbbec2c5a7f1ebed" target="_top" xlink:title=" ">
<polygon fill="white" stroke="black" points="364,-0.5 364,-19.5 469,-19.5 469,-0.5 364,-0.5"/>
<text text-anchor="middle" x="416.5" y="-7.5" font-family="Helvetica,sans-Serif" font-size="10.00">CFileType::setPath</text>
</a>
</g>
</g>
<!-- Node3&#45;&gt;Node5 -->
<g id="edge4" class="edge">
<title>Node3&#45;&gt;Node5</title>
<path fill="none" stroke="midnightblue" d="M328.37,-22.35C336.61,-21.19 345.31,-19.95 353.88,-18.74"/>
<polygon fill="midnightblue" stroke="midnightblue" points="354.45,-22.19 363.86,-17.32 353.47,-15.26 354.45,-22.19"/>
</g>
</g>
</svg>
