<?xml version="1.0" encoding="UTF-8" standalone="no"?>
<!DOCTYPE svg PUBLIC "-//W3C//DTD SVG 1.1//EN"
 "http://www.w3.org/Graphics/SVG/1.1/DTD/svg11.dtd">
<!-- Generated by graphviz version 2.43.0 (0)
 -->
<!-- Title: linkExists Pages: 1 -->
<svg width="451pt" height="104pt"
 viewBox="0.00 0.00 451.00 104.00" xmlns="http://www.w3.org/2000/svg" xmlns:xlink="http://www.w3.org/1999/xlink">
<g id="graph0" class="graph" transform="scale(1 1) rotate(0) translate(4 100)">
<title>linkExists</title>
<polygon fill="white" stroke="transparent" points="-4,4 -4,-100 447,-100 447,4 -4,4"/>
<!-- Node1 -->
<g id="node1" class="node">
<title>Node1</title>
<g id="a_node1"><a xlink:title=" ">
<polygon fill="#bfbfbf" stroke="black" points="379,-38.5 379,-57.5 443,-57.5 443,-38.5 379,-38.5"/>
<text text-anchor="middle" x="411" y="-45.5" font-family="Helvetica,sans-Serif" font-size="10.00">linkExists</text>
</a>
</g>
</g>
<!-- Node2 -->
<g id="node2" class="node">
<title>Node2</title>
<g id="a_node2"><a xlink:href="classCLink.html#aac39d4f419f78e238bfd701004e30c5b" target="_top" xlink:title=" ">
<polygon fill="white" stroke="black" points="247.5,-76.5 247.5,-95.5 337.5,-95.5 337.5,-76.5 247.5,-76.5"/>
<text text-anchor="middle" x="292.5" y="-83.5" font-family="Helvetica,sans-Serif" font-size="10.00">CLink::copyFile</text>
</a>
</g>
</g>
<!-- Node1&#45;&gt;Node2 -->
<g id="edge1" class="edge">
<title>Node1&#45;&gt;Node2</title>
<path fill="none" stroke="midnightblue" d="M370.68,-60.83C355.05,-65.92 337.37,-71.69 322.89,-76.41"/>
<polygon fill="midnightblue" stroke="midnightblue" points="372.18,-64.02 380.6,-57.59 370.01,-57.36 372.18,-64.02"/>
</g>
<!-- Node4 -->
<g id="node4" class="node">
<title>Node4</title>
<g id="a_node4"><a xlink:href="classCLink.html#a8c630a971a100b6202f5a9c8f47db34a" target="_top" xlink:title=" ">
<polygon fill="white" stroke="black" points="242,-0.5 242,-19.5 343,-19.5 343,-0.5 242,-0.5"/>
<text text-anchor="middle" x="292.5" y="-7.5" font-family="Helvetica,sans-Serif" font-size="10.00">CLink::createLink</text>
</a>
</g>
</g>
<!-- Node1&#45;&gt;Node4 -->
<g id="edge3" class="edge">
<title>Node1&#45;&gt;Node4</title>
<path fill="none" stroke="midnightblue" d="M370.68,-35.17C355.05,-30.08 337.37,-24.31 322.89,-19.59"/>
<polygon fill="midnightblue" stroke="midnightblue" points="370.01,-38.64 380.6,-38.41 372.18,-31.98 370.01,-38.64"/>
</g>
<!-- Node7 -->
<g id="node7" class="node">
<title>Node7</title>
<g id="a_node7"><a xlink:href="classCLink.html#af41a3dec8c3388031513d17291f53e05" target="_top" xlink:title=" ">
<polygon fill="white" stroke="black" points="245,-38.5 245,-57.5 340,-57.5 340,-38.5 245,-38.5"/>
<text text-anchor="middle" x="292.5" y="-45.5" font-family="Helvetica,sans-Serif" font-size="10.00">CLink::moveFile</text>
</a>
</g>
</g>
<!-- Node1&#45;&gt;Node7 -->
<g id="edge6" class="edge">
<title>Node1&#45;&gt;Node7</title>
<path fill="none" stroke="midnightblue" d="M368.67,-48C359.44,-48 349.58,-48 340.15,-48"/>
<polygon fill="midnightblue" stroke="midnightblue" points="368.78,-51.5 378.78,-48 368.78,-44.5 368.78,-51.5"/>
</g>
<!-- Node3 -->
<g id="node3" class="node">
<title>Node3</title>
<g id="a_node3"><a xlink:href="Main_8cpp.html#ae66f6b31b5ad750f1fe042a706a4e3d4" target="_top" xlink:title=" ">
<polygon fill="white" stroke="black" points="147,-57.5 147,-76.5 188,-76.5 188,-57.5 147,-57.5"/>
<text text-anchor="middle" x="167.5" y="-64.5" font-family="Helvetica,sans-Serif" font-size="10.00">main</text>
</a>
</g>
</g>
<!-- Node2&#45;&gt;Node3 -->
<g id="edge2" class="edge">
<title>Node2&#45;&gt;Node3</title>
<path fill="none" stroke="midnightblue" d="M237.29,-77.63C219.81,-74.93 201.54,-72.1 188.22,-70.05"/>
<polygon fill="midnightblue" stroke="midnightblue" points="237.02,-81.13 247.44,-79.19 238.09,-74.21 237.02,-81.13"/>
</g>
<!-- Node5 -->
<g id="node5" class="node">
<title>Node5</title>
<g id="a_node5"><a xlink:href="classCLink.html#a50e56677aad68a199da94c317819f465" target="_top" xlink:title=" ">
<polygon fill="white" stroke="black" points="129,-0.5 129,-19.5 206,-19.5 206,-0.5 129,-0.5"/>
<text text-anchor="middle" x="167.5" y="-7.5" font-family="Helvetica,sans-Serif" font-size="10.00">CLink::CLink</text>
</a>
</g>
</g>
<!-- Node4&#45;&gt;Node5 -->
<g id="edge4" class="edge">
<title>Node4&#45;&gt;Node5</title>
<path fill="none" stroke="midnightblue" d="M231.71,-10C223.04,-10 214.32,-10 206.25,-10"/>
<polygon fill="midnightblue" stroke="midnightblue" points="231.83,-13.5 241.83,-10 231.83,-6.5 231.83,-13.5"/>
</g>
<!-- Node6 -->
<g id="node6" class="node">
<title>Node6</title>
<g id="a_node6"><a xlink:href="classCLink.html#ac37d10164ddd8a8be3d7841e90c7be85" target="_top" xlink:title=" ">
<polygon fill="white" stroke="black" points="0,-0.5 0,-19.5 93,-19.5 93,-0.5 0,-0.5"/>
<text text-anchor="middle" x="46.5" y="-7.5" font-family="Helvetica,sans-Serif" font-size="10.00">CLink::cloneFile</text>
</a>
</g>
</g>
<!-- Node5&#45;&gt;Node6 -->
<g id="edge5" class="edge">
<title>Node5&#45;&gt;Node6</title>
<path fill="none" stroke="midnightblue" d="M118.79,-10C110.37,-10 101.62,-10 93.25,-10"/>
<polygon fill="midnightblue" stroke="midnightblue" points="118.85,-13.5 128.85,-10 118.85,-6.5 118.85,-13.5"/>
</g>
<!-- Node7&#45;&gt;Node3 -->
<g id="edge7" class="edge">
<title>Node7&#45;&gt;Node3</title>
<path fill="none" stroke="midnightblue" d="M234.68,-56.78C217.93,-59.36 200.72,-62.02 188.05,-63.98"/>
<polygon fill="midnightblue" stroke="midnightblue" points="235.65,-60.17 245,-55.18 234.58,-53.25 235.65,-60.17"/>
</g>
</g>
</svg>
