<?xml version="1.0" encoding="UTF-8" standalone="no"?>
<!DOCTYPE svg PUBLIC "-//W3C//DTD SVG 1.1//EN"
 "http://www.w3.org/Graphics/SVG/1.1/DTD/svg11.dtd">
<!-- Generated by graphviz version 2.43.0 (0)
 -->
<!-- Title: src/Main.cpp Pages: 1 -->
<svg width="374pt" height="252pt"
 viewBox="0.00 0.00 374.00 252.00" xmlns="http://www.w3.org/2000/svg" xmlns:xlink="http://www.w3.org/1999/xlink">
<g id="graph0" class="graph" transform="scale(1 1) rotate(0) translate(4 248)">
<title>src/Main.cpp</title>
<polygon fill="white" stroke="transparent" points="-4,4 -4,-248 370,-248 370,4 -4,4"/>
<!-- Node1 -->
<g id="node1" class="node">
<title>Node1</title>
<g id="a_node1"><a xlink:title=" ">
<polygon fill="#bfbfbf" stroke="black" points="81,-224.5 81,-243.5 159,-243.5 159,-224.5 81,-224.5"/>
<text text-anchor="middle" x="120" y="-231.5" font-family="Helvetica,sans-Serif" font-size="10.00">src/Main.cpp</text>
</a>
</g>
</g>
<!-- Node2 -->
<g id="node2" class="node">
<title>Node2</title>
<g id="a_node2"><a xlink:href="CFile_8h.html" target="_top" xlink:title=" ">
<polygon fill="white" stroke="black" points="64,-112.5 64,-131.5 114,-131.5 114,-112.5 64,-112.5"/>
<text text-anchor="middle" x="89" y="-119.5" font-family="Helvetica,sans-Serif" font-size="10.00">CFile.h</text>
</a>
</g>
</g>
<!-- Node1&#45;&gt;Node2 -->
<g id="edge1" class="edge">
<title>Node1&#45;&gt;Node2</title>
<path fill="none" stroke="midnightblue" d="M117.57,-224.37C112.54,-206.54 100.92,-165.3 94.15,-141.27"/>
<polygon fill="midnightblue" stroke="midnightblue" points="97.5,-140.27 91.42,-131.59 90.77,-142.17 97.5,-140.27"/>
</g>
<!-- Node5 -->
<g id="node5" class="node">
<title>Node5</title>
<g id="a_node5"><a xlink:href="CFileSystem_8h.html" target="_top" xlink:title=" ">
<polygon fill="white" stroke="black" points="171,-168.5 171,-187.5 257,-187.5 257,-168.5 171,-168.5"/>
<text text-anchor="middle" x="214" y="-175.5" font-family="Helvetica,sans-Serif" font-size="10.00">CFileSystem.h</text>
</a>
</g>
</g>
<!-- Node1&#45;&gt;Node5 -->
<g id="edge5" class="edge">
<title>Node1&#45;&gt;Node5</title>
<path fill="none" stroke="midnightblue" d="M135.1,-224.32C149.9,-215.82 172.69,-202.73 189.98,-192.8"/>
<polygon fill="midnightblue" stroke="midnightblue" points="192.01,-195.67 198.93,-187.65 188.52,-189.6 192.01,-195.67"/>
</g>
<!-- Node8 -->
<g id="node8" class="node">
<title>Node8</title>
<g id="a_node8"><a xlink:href="CDir_8h.html" target="_top" xlink:title=" ">
<polygon fill="white" stroke="black" points="0,-112.5 0,-131.5 46,-131.5 46,-112.5 0,-112.5"/>
<text text-anchor="middle" x="23" y="-119.5" font-family="Helvetica,sans-Serif" font-size="10.00">CDir.h</text>
</a>
</g>
</g>
<!-- Node1&#45;&gt;Node8 -->
<g id="edge10" class="edge">
<title>Node1&#45;&gt;Node8</title>
<path fill="none" stroke="midnightblue" d="M112.39,-224.37C96.24,-206.05 58.32,-163.05 37.43,-139.36"/>
<polygon fill="midnightblue" stroke="midnightblue" points="39.82,-136.78 30.58,-131.59 34.56,-141.41 39.82,-136.78"/>
</g>
<!-- Node9 -->
<g id="node9" class="node">
<title>Node9</title>
<g id="a_node9"><a xlink:href="CLink_8h.html" target="_top" xlink:title=" ">
<polygon fill="white" stroke="black" points="132.5,-112.5 132.5,-131.5 185.5,-131.5 185.5,-112.5 132.5,-112.5"/>
<text text-anchor="middle" x="159" y="-119.5" font-family="Helvetica,sans-Serif" font-size="10.00">CLink.h</text>
</a>
</g>
</g>
<!-- Node1&#45;&gt;Node9 -->
<g id="edge13" class="edge">
<title>Node1&#45;&gt;Node9</title>
<path fill="none" stroke="midnightblue" d="M123.06,-224.37C129.38,-206.54 144,-165.3 152.52,-141.27"/>
<polygon fill="midnightblue" stroke="midnightblue" points="155.91,-142.19 155.95,-131.59 149.31,-139.85 155.91,-142.19"/>
</g>
<!-- Node3 -->
<g id="node3" class="node">
<title>Node3</title>
<g id="a_node3"><a xlink:title=" ">
<polygon fill="white" stroke="#bfbfbf" points="116,-0.5 116,-19.5 160,-19.5 160,-0.5 116,-0.5"/>
<text text-anchor="middle" x="138" y="-7.5" font-family="Helvetica,sans-Serif" font-size="10.00">string</text>
</a>
</g>
</g>
<!-- Node2&#45;&gt;Node3 -->
<g id="edge2" class="edge">
<title>Node2&#45;&gt;Node3</title>
<path fill="none" stroke="midnightblue" d="M96.07,-112.18C102.77,-103.44 112.73,-89.45 119,-76 125.99,-61.01 131.03,-42.88 134.16,-29.58"/>
<polygon fill="midnightblue" stroke="midnightblue" points="137.6,-30.23 136.33,-19.71 130.76,-28.72 137.6,-30.23"/>
</g>
<!-- Node4 -->
<g id="node4" class="node">
<title>Node4</title>
<g id="a_node4"><a xlink:href="CFileType_8h.html" target="_top" xlink:title=" ">
<polygon fill="white" stroke="black" points="38,-56.5 38,-75.5 110,-75.5 110,-56.5 38,-56.5"/>
<text text-anchor="middle" x="74" y="-63.5" font-family="Helvetica,sans-Serif" font-size="10.00">CFileType.h</text>
</a>
</g>
</g>
<!-- Node2&#45;&gt;Node4 -->
<g id="edge3" class="edge">
<title>Node2&#45;&gt;Node4</title>
<path fill="none" stroke="midnightblue" d="M86.52,-112.08C84.51,-104.85 81.61,-94.41 79.11,-85.4"/>
<polygon fill="midnightblue" stroke="midnightblue" points="82.48,-84.45 76.43,-75.75 75.74,-86.32 82.48,-84.45"/>
</g>
<!-- Node4&#45;&gt;Node3 -->
<g id="edge4" class="edge">
<title>Node4&#45;&gt;Node3</title>
<path fill="none" stroke="midnightblue" d="M84.28,-56.32C93.84,-48.26 108.28,-36.08 119.78,-26.37"/>
<polygon fill="midnightblue" stroke="midnightblue" points="122.14,-28.96 127.53,-19.83 117.63,-23.61 122.14,-28.96"/>
</g>
<!-- Node5&#45;&gt;Node2 -->
<g id="edge9" class="edge">
<title>Node5&#45;&gt;Node2</title>
<path fill="none" stroke="midnightblue" d="M194.19,-168.44C173.71,-159.6 141.52,-145.69 118.14,-135.59"/>
<polygon fill="midnightblue" stroke="midnightblue" points="119.28,-132.27 108.71,-131.52 116.51,-138.7 119.28,-132.27"/>
</g>
<!-- Node5&#45;&gt;Node3 -->
<g id="edge6" class="edge">
<title>Node5&#45;&gt;Node3</title>
<path fill="none" stroke="midnightblue" d="M211.77,-168.46C208.41,-155.92 201.62,-131.84 194,-112 184.16,-86.38 181.43,-79.93 168,-56 162.66,-46.48 155.98,-36.33 150.28,-28.08"/>
<polygon fill="midnightblue" stroke="midnightblue" points="153.01,-25.87 144.39,-19.71 147.29,-29.9 153.01,-25.87"/>
</g>
<!-- Node6 -->
<g id="node6" class="node">
<title>Node6</title>
<g id="a_node6"><a xlink:title=" ">
<polygon fill="white" stroke="#bfbfbf" points="242.5,-112.5 242.5,-131.5 289.5,-131.5 289.5,-112.5 242.5,-112.5"/>
<text text-anchor="middle" x="266" y="-119.5" font-family="Helvetica,sans-Serif" font-size="10.00">vector</text>
</a>
</g>
</g>
<!-- Node5&#45;&gt;Node6 -->
<g id="edge7" class="edge">
<title>Node5&#45;&gt;Node6</title>
<path fill="none" stroke="midnightblue" d="M222.59,-168.08C230.16,-160.22 241.38,-148.57 250.51,-139.08"/>
<polygon fill="midnightblue" stroke="midnightblue" points="253.16,-141.38 257.57,-131.75 248.12,-136.53 253.16,-141.38"/>
</g>
<!-- Node7 -->
<g id="node7" class="node">
<title>Node7</title>
<g id="a_node7"><a xlink:title=" ">
<polygon fill="white" stroke="#bfbfbf" points="308,-112.5 308,-131.5 366,-131.5 366,-112.5 308,-112.5"/>
<text text-anchor="middle" x="337" y="-119.5" font-family="Helvetica,sans-Serif" font-size="10.00">memory</text>
</a>
</g>
</g>
<!-- Node5&#45;&gt;Node7 -->
<g id="edge8" class="edge">
<title>Node5&#45;&gt;Node7</title>
<path fill="none" stroke="midnightblue" d="M233.49,-168.44C253.64,-159.6 285.32,-145.69 308.33,-135.59"/>
<polygon fill="midnightblue" stroke="midnightblue" points="309.85,-138.74 317.6,-131.52 307.04,-132.33 309.85,-138.74"/>
</g>
<!-- Node8&#45;&gt;Node3 -->
<g id="edge11" class="edge">
<title>Node8&#45;&gt;Node3</title>
<path fill="none" stroke="midnightblue" d="M21.22,-112.45C18.94,-99.02 16.62,-72.78 29,-56 47.05,-31.53 80.85,-20.31 106.05,-15.2"/>
<polygon fill="midnightblue" stroke="midnightblue" points="106.69,-18.64 115.91,-13.41 105.44,-11.75 106.69,-18.64"/>
</g>
<!-- Node8&#45;&gt;Node4 -->
<g id="edge12" class="edge">
<title>Node8&#45;&gt;Node4</title>
<path fill="none" stroke="midnightblue" d="M31.42,-112.08C38.85,-104.22 49.85,-92.57 58.81,-83.08"/>
<polygon fill="midnightblue" stroke="midnightblue" points="61.41,-85.42 65.74,-75.75 56.32,-80.62 61.41,-85.42"/>
</g>
<!-- Node9&#45;&gt;Node3 -->
<g id="edge14" class="edge">
<title>Node9&#45;&gt;Node3</title>
<path fill="none" stroke="midnightblue" d="M158.59,-112.08C157.88,-99.48 156.1,-75.78 152,-56 150.15,-47.09 147.27,-37.42 144.59,-29.34"/>
<polygon fill="midnightblue" stroke="midnightblue" points="147.88,-28.14 141.31,-19.83 141.26,-30.43 147.88,-28.14"/>
</g>
<!-- Node9&#45;&gt;Node4 -->
<g id="edge15" class="edge">
<title>Node9&#45;&gt;Node4</title>
<path fill="none" stroke="midnightblue" d="M145.34,-112.32C132.08,-103.9 111.73,-90.97 96.15,-81.07"/>
<polygon fill="midnightblue" stroke="midnightblue" points="97.94,-78.06 87.62,-75.65 94.19,-83.97 97.94,-78.06"/>
</g>
</g>
</svg>
