<?xml version="1.0" encoding="UTF-8" standalone="no"?>
<!DOCTYPE svg PUBLIC "-//W3C//DTD SVG 1.1//EN"
 "http://www.w3.org/Graphics/SVG/1.1/DTD/svg11.dtd">
<!-- Generated by graphviz version 2.43.0 (0)
 -->
<!-- Title: main Pages: 1 -->
<svg width="321pt" height="104pt"
 viewBox="0.00 0.00 321.00 104.00" xmlns="http://www.w3.org/2000/svg" xmlns:xlink="http://www.w3.org/1999/xlink">
<g id="graph0" class="graph" transform="scale(1 1) rotate(0) translate(4 100)">
<title>main</title>
<polygon fill="white" stroke="transparent" points="-4,4 -4,-100 317,-100 317,4 -4,4"/>
<!-- Node1 -->
<g id="node1" class="node">
<title>Node1</title>
<g id="a_node1"><a xlink:title=" ">
<polygon fill="#bfbfbf" stroke="black" points="0,-38.5 0,-57.5 41,-57.5 41,-38.5 0,-38.5"/>
<text text-anchor="middle" x="20.5" y="-45.5" font-family="Helvetica,sans-Serif" font-size="10.00">main</text>
</a>
</g>
</g>
<!-- Node2 -->
<g id="node2" class="node">
<title>Node2</title>
<g id="a_node2"><a xlink:href="classCFile.html#a1c802397d98368be12fd32b2e1309288" target="_top" xlink:title=" ">
<polygon fill="white" stroke="black" points="81,-76.5 81,-95.5 168,-95.5 168,-76.5 81,-76.5"/>
<text text-anchor="middle" x="124.5" y="-83.5" font-family="Helvetica,sans-Serif" font-size="10.00">CFile::copyFile</text>
</a>
</g>
</g>
<!-- Node1&#45;&gt;Node2 -->
<g id="edge1" class="edge">
<title>Node1&#45;&gt;Node2</title>
<path fill="none" stroke="midnightblue" d="M41.17,-55.33C54.49,-60.29 72.48,-66.99 88.25,-72.87"/>
<polygon fill="midnightblue" stroke="midnightblue" points="87.12,-76.18 97.71,-76.39 89.56,-69.62 87.12,-76.18"/>
</g>
<!-- Node5 -->
<g id="node5" class="node">
<title>Node5</title>
<g id="a_node5"><a xlink:href="classCLink.html#aac39d4f419f78e238bfd701004e30c5b" target="_top" xlink:title=" ">
<polygon fill="white" stroke="black" points="79.5,-0.5 79.5,-19.5 169.5,-19.5 169.5,-0.5 79.5,-0.5"/>
<text text-anchor="middle" x="124.5" y="-7.5" font-family="Helvetica,sans-Serif" font-size="10.00">CLink::copyFile</text>
</a>
</g>
</g>
<!-- Node1&#45;&gt;Node5 -->
<g id="edge4" class="edge">
<title>Node1&#45;&gt;Node5</title>
<path fill="none" stroke="midnightblue" d="M41.17,-40.67C54.49,-35.71 72.48,-29.01 88.25,-23.13"/>
<polygon fill="midnightblue" stroke="midnightblue" points="89.56,-26.38 97.71,-19.61 87.12,-19.82 89.56,-26.38"/>
</g>
<!-- Node7 -->
<g id="node7" class="node">
<title>Node7</title>
<g id="a_node7"><a xlink:href="classCLink.html#af41a3dec8c3388031513d17291f53e05" target="_top" xlink:title=" ">
<polygon fill="white" stroke="black" points="77,-38.5 77,-57.5 172,-57.5 172,-38.5 77,-38.5"/>
<text text-anchor="middle" x="124.5" y="-45.5" font-family="Helvetica,sans-Serif" font-size="10.00">CLink::moveFile</text>
</a>
</g>
</g>
<!-- Node1&#45;&gt;Node7 -->
<g id="edge7" class="edge">
<title>Node1&#45;&gt;Node7</title>
<path fill="none" stroke="midnightblue" d="M41.17,-48C48.65,-48 57.6,-48 66.8,-48"/>
<polygon fill="midnightblue" stroke="midnightblue" points="66.83,-51.5 76.83,-48 66.83,-44.5 66.83,-51.5"/>
</g>
<!-- Node3 -->
<g id="node3" class="node">
<title>Node3</title>
<g id="a_node3"><a xlink:href="CFile_8cpp.html#af61eef88c54496e05a927a667ac66f06" target="_top" xlink:title=" ">
<polygon fill="white" stroke="black" points="222,-76.5 222,-95.5 299,-95.5 299,-76.5 222,-76.5"/>
<text text-anchor="middle" x="260.5" y="-83.5" font-family="Helvetica,sans-Serif" font-size="10.00">isAccessible</text>
</a>
</g>
</g>
<!-- Node2&#45;&gt;Node3 -->
<g id="edge2" class="edge">
<title>Node2&#45;&gt;Node3</title>
<path fill="none" stroke="midnightblue" d="M168.27,-86C182.07,-86 197.47,-86 211.62,-86"/>
<polygon fill="midnightblue" stroke="midnightblue" points="211.66,-89.5 221.66,-86 211.66,-82.5 211.66,-89.5"/>
</g>
<!-- Node4 -->
<g id="node4" class="node">
<title>Node4</title>
<g id="a_node4"><a xlink:href="classCFileType.html#a75b380f75def9d2fdbbec2c5a7f1ebed" target="_top" xlink:title=" ">
<polygon fill="white" stroke="black" points="208,-38.5 208,-57.5 313,-57.5 313,-38.5 208,-38.5"/>
<text text-anchor="middle" x="260.5" y="-45.5" font-family="Helvetica,sans-Serif" font-size="10.00">CFileType::setPath</text>
</a>
</g>
</g>
<!-- Node2&#45;&gt;Node4 -->
<g id="edge3" class="edge">
<title>Node2&#45;&gt;Node4</title>
<path fill="none" stroke="midnightblue" d="M159.31,-76.41C176.53,-71.53 197.66,-65.54 216.07,-60.32"/>
<polygon fill="midnightblue" stroke="midnightblue" points="217.03,-63.68 225.7,-57.59 215.12,-56.95 217.03,-63.68"/>
</g>
<!-- Node5&#45;&gt;Node4 -->
<g id="edge6" class="edge">
<title>Node5&#45;&gt;Node4</title>
<path fill="none" stroke="midnightblue" d="M159.31,-19.59C176.53,-24.47 197.66,-30.46 216.07,-35.68"/>
<polygon fill="midnightblue" stroke="midnightblue" points="215.12,-39.05 225.7,-38.41 217.03,-32.32 215.12,-39.05"/>
</g>
<!-- Node6 -->
<g id="node6" class="node">
<title>Node6</title>
<g id="a_node6"><a xlink:href="CLink_8cpp.html#a667f56441c178ef33bcf06285df030a8" target="_top" xlink:title=" ">
<polygon fill="white" stroke="black" points="228.5,-0.5 228.5,-19.5 292.5,-19.5 292.5,-0.5 228.5,-0.5"/>
<text text-anchor="middle" x="260.5" y="-7.5" font-family="Helvetica,sans-Serif" font-size="10.00">linkExists</text>
</a>
</g>
</g>
<!-- Node5&#45;&gt;Node6 -->
<g id="edge5" class="edge">
<title>Node5&#45;&gt;Node6</title>
<path fill="none" stroke="midnightblue" d="M169.75,-10C185.36,-10 202.83,-10 218.19,-10"/>
<polygon fill="midnightblue" stroke="midnightblue" points="218.43,-13.5 228.43,-10 218.43,-6.5 218.43,-13.5"/>
</g>
<!-- Node7&#45;&gt;Node4 -->
<g id="edge9" class="edge">
<title>Node7&#45;&gt;Node4</title>
<path fill="none" stroke="midnightblue" d="M172.37,-48C180.52,-48 189.12,-48 197.6,-48"/>
<polygon fill="midnightblue" stroke="midnightblue" points="197.86,-51.5 207.86,-48 197.86,-44.5 197.86,-51.5"/>
</g>
<!-- Node7&#45;&gt;Node6 -->
<g id="edge8" class="edge">
<title>Node7&#45;&gt;Node6</title>
<path fill="none" stroke="midnightblue" d="M159.31,-38.41C177.32,-33.3 199.61,-26.98 218.59,-21.6"/>
<polygon fill="midnightblue" stroke="midnightblue" points="219.79,-24.9 228.45,-18.8 217.88,-18.17 219.79,-24.9"/>
</g>
</g>
</svg>
